<svg width="106" height="106" viewBox="0 0 106 106" fill="none" xmlns="http://www.w3.org/2000/svg">
<path d="M56.8599 32.5602L56.86 32.5602C60.1999 29.2201 64.6303 27.3848 69.3537 27.3848C88.227 27.3848 103.585 42.7427 103.585 61.6161V74.0371V103.021C103.585 103.632 103.09 104.127 102.479 104.127C97.285 104.127 92.7594 101.179 90.4923 96.8555L89.9835 95.8851L88.8918 95.7915C83.4776 95.3275 78.9564 91.6544 77.2561 86.6794L76.8616 85.5253L75.655 85.3476C69.1321 84.3869 64.1084 78.7487 64.1084 71.9668V65.7559C64.1084 59.5142 59.0336 54.4395 52.792 54.4395C46.5504 54.4395 41.4756 59.5142 41.4756 65.7559V71.9668C41.4756 78.7487 36.4519 84.3869 29.9289 85.3478L28.7224 85.5255L28.3279 86.6796C26.6274 91.6546 22.1062 95.3276 16.6921 95.7917L15.6005 95.8853L15.0917 96.8557C12.8246 101.179 8.29902 104.127 3.10449 104.127C2.49401 104.127 1.99902 103.632 1.99902 103.021V74.0371V61.6161C1.99902 42.7427 17.357 27.3848 36.2303 27.3848C40.9536 27.3848 45.384 29.2201 48.7239 32.5601C49.6342 33.4706 50.431 34.4619 51.1105 35.517L52.7922 38.1282L54.4736 35.5168C55.1528 34.4619 55.9498 33.4704 56.8599 32.5602Z" stroke="#193554" stroke-width="4"/>
<path d="M63.1392 7.15664L63.1391 7.15659C60.273 5.90286 56.3125 5.21094 52.2715 5.21094C48.2305 5.21094 44.27 5.90286 41.4038 7.15659L41.8046 8.07277L41.4037 7.15664C40.1862 7.6894 39.3441 8.24723 38.7882 8.74315C38.5116 8.98998 38.2946 9.23151 38.138 9.45821C38.0601 9.57104 37.9883 9.69285 37.9327 9.82062C37.8846 9.93077 37.8145 10.1213 37.8145 10.3516C37.8145 10.5818 37.8846 10.7724 37.9327 10.8825C37.9883 11.0103 38.0601 11.1321 38.138 11.2449C38.2946 11.4716 38.5116 11.7131 38.7882 11.96C39.3441 12.4559 40.1862 13.0137 41.4037 13.5465L41.4038 13.5465C44.27 14.8003 48.2305 15.4922 52.2715 15.4922C56.3125 15.4922 60.273 14.8003 63.1391 13.5465L63.1392 13.5465C64.3568 13.0137 65.1989 12.4559 65.7547 11.96C66.0314 11.7131 66.2484 11.4716 66.4049 11.2449C66.4829 11.1321 66.5546 11.0103 66.6103 10.8825C66.6583 10.7724 66.7285 10.5818 66.7285 10.3516C66.7285 10.1213 66.6583 9.93077 66.6103 9.82062C66.5546 9.69285 66.4829 9.57104 66.4049 9.45821C66.2484 9.23151 66.0314 8.98998 65.7547 8.74315C65.1989 8.24723 64.3568 7.6894 63.1392 7.15664ZM52.2715 19.7031C47.5313 19.7031 43.0732 18.873 39.7161 17.4042C36.9372 16.1884 35.4263 14.7789 34.6044 13.5322C33.7829 12.2863 33.6035 11.1329 33.6035 10.3516C33.6035 9.57025 33.7829 8.41687 34.6044 7.17089C35.4263 5.9242 36.9372 4.51468 39.7161 3.29888C43.0732 1.8301 47.5313 1 52.2715 1C57.0117 1 61.4698 1.8301 64.8269 3.29887C67.6058 4.51468 69.1167 5.9242 69.9386 7.17089C70.76 8.41687 70.9395 9.57025 70.9395 10.3516C70.9395 11.1329 70.76 12.2863 69.9386 13.5322C69.1167 14.7789 67.6058 16.1884 64.8269 17.4042C61.4698 18.873 57.0117 19.7031 52.2715 19.7031Z" stroke="#193554" stroke-width="2"/>
</svg>
