<svg width="104" height="104" viewBox="0 0 104 104" fill="none" xmlns="http://www.w3.org/2000/svg">
<path d="M102.267 96.1934H1.73333C0.7761 96.1934 0 96.9695 0 97.9267C0 98.8839 0.7761 99.66 1.73333 99.66H102.267C103.224 99.66 104 98.8839 104 97.9267C104 96.9695 103.224 96.1934 102.267 96.1934Z" fill="#193554"/>
<path d="M86.4636 49.5154L70.8496 32.943C70.1727 32.2664 69.0755 32.2664 68.3987 32.943L53.733 44.5251L42.1509 32.943C49.7966 31.8014 55.4577 25.2399 55.4664 17.5094V17.213C55.4664 14.3411 53.1383 12.013 50.2664 12.013C47.3945 12.013 45.0664 14.3411 45.0664 17.213C45.0625 20.2476 42.6029 22.7066 39.5682 22.7094C36.5239 22.7155 33.5042 23.2532 30.645 24.2989C32.4863 18.8582 29.5682 12.9551 24.1275 11.1141C18.6868 9.27304 12.7837 12.1909 10.9427 17.6316C9.10166 23.0723 12.0195 28.9754 17.4602 30.8164C18.3191 31.107 19.2122 31.2842 20.1168 31.3431L19.5864 31.8874C12.2091 39.2656 12.2091 51.2269 19.5864 58.605L20.2433 59.2619C22.3625 61.3679 25.7878 61.3573 27.8938 59.2381C28.8991 58.2265 29.4642 56.8591 29.4664 55.433C29.4705 53.9974 28.9 52.6198 27.8821 51.6075L27.2252 50.9506C24.5522 48.2687 24.0976 44.0912 26.1314 40.8973L50.2386 64.9941H36.3997C35.4425 64.9941 34.6664 65.7702 34.6664 66.7274C34.6664 67.6846 35.4425 68.4607 36.3997 68.4607H53.6984L55.4664 70.2287V85.7941C55.4685 87.012 55.792 88.2077 56.4041 89.2607H45.0664C44.1091 89.2607 43.333 90.0368 43.333 90.9941C43.333 91.9513 44.1091 92.7274 45.0664 92.7274H62.3529H62.3997C66.2289 92.7274 69.3331 89.6232 69.3331 85.7941V64.3007C69.3331 63.841 69.1502 63.4003 68.8252 63.0753L61.384 55.6341L67.5997 49.4287L77.0793 58.8997C79.6707 61.491 83.8723 61.491 86.4636 58.8997C89.0549 56.3083 89.0549 52.1067 86.4636 49.5154ZM13.8664 20.9761C13.8664 17.1469 16.9706 14.0427 20.7997 14.0427C24.6289 14.0427 27.733 17.1469 27.733 20.9761C27.733 24.8052 24.6289 27.9094 20.7997 27.9094C16.9706 27.9094 13.8664 24.8052 13.8664 20.9761ZM83.9841 56.4496C83.3949 57.0331 82.6006 57.3624 81.7714 57.3672C80.9314 57.3652 80.1261 57.032 79.5303 56.4399L68.8321 45.7539C68.1553 45.0772 67.0581 45.0772 66.3812 45.7539L57.7197 54.4205C57.0431 55.0974 57.0431 56.1946 57.7197 56.8715L65.8664 65.0287V85.7941C65.8664 87.7088 64.3144 89.2607 62.3997 89.2607C60.485 89.2607 58.933 87.7088 58.933 85.7941V69.5007C58.933 69.041 58.7502 68.6003 58.4252 68.2753L27.2252 37.0753C26.5483 36.3986 25.4511 36.3986 24.7742 37.0753C20.2743 41.5837 20.2743 48.8845 24.7742 53.3929L25.4312 54.0498C26.1904 54.8084 26.1908 56.0386 25.4323 56.7978C25.0676 57.1629 24.5725 57.3678 24.0566 57.3674C23.5414 57.3661 23.0476 57.162 22.6821 56.7989L22.0252 56.1419C16.0012 50.1175 16.0012 40.3506 22.0252 34.3262L23.5488 32.8043C27.7879 28.5414 33.5564 26.1514 39.5682 26.1674C44.5132 26.1626 48.5226 22.158 48.533 17.213C48.533 16.2558 49.3091 15.4797 50.2664 15.4797C51.2236 15.4797 51.9997 16.2558 51.9997 17.213V17.5094C51.9921 24.2072 46.5642 29.6352 39.8664 29.6427C38.9091 29.6427 38.133 30.4188 38.133 31.3761V33.1094C38.133 33.5692 38.3159 34.0099 38.6409 34.3349L52.5076 48.2015C53.1844 48.8782 54.2817 48.8782 54.9585 48.2015L69.6172 36.6177L84.0057 51.9663C85.2377 53.2104 85.2282 55.2176 83.9841 56.4496Z" fill="#193554"/>
<path d="M38.1336 89.2598H34.6669C33.7097 89.2598 32.9336 90.0359 32.9336 90.9931C32.9336 91.9503 33.7097 92.7264 34.6669 92.7264H38.1336C39.0908 92.7264 39.8669 91.9503 39.8669 90.9931C39.8669 90.0359 39.0908 89.2598 38.1336 89.2598Z" fill="#193554"/>
<path d="M29.4664 64.9941H25.9997C25.0425 64.9941 24.2664 65.7702 24.2664 66.7275C24.2664 67.6847 25.0425 68.4608 25.9997 68.4608H29.4664C30.4236 68.4608 31.1997 67.6847 31.1997 66.7275C31.1997 65.7702 30.4236 64.9941 29.4664 64.9941Z" fill="#193554"/>
<path d="M102.267 6.76521C102.15 6.76521 102.034 6.77691 101.92 6.80031H101.932C98.452 7.50296 94.8349 6.87333 91.7973 5.03578L91.0363 4.57644C90.9884 4.55261 90.9393 4.53116 90.889 4.51231C90.8387 4.48804 90.7885 4.46724 90.7365 4.44644C90.3517 4.30431 89.9287 4.30431 89.5439 4.44644C89.4919 4.46724 89.4417 4.48804 89.3914 4.51231C89.3411 4.53116 89.2922 4.55261 89.2441 4.57644L88.4831 5.03578C85.4453 6.87441 81.8271 7.50426 78.3466 6.80031C77.4087 6.60878 76.493 7.21393 76.3017 8.15188C76.2783 8.26606 76.2666 8.38241 76.2666 8.49898V25.9536C76.2666 28.4124 76.9313 30.8254 78.1906 32.9372C79.6449 35.3873 81.8397 37.3126 84.4583 38.4354L89.4469 40.5847C89.8817 40.7719 90.3744 40.7719 90.8093 40.5847L95.7995 38.4354C98.4182 37.3126 100.613 35.3873 102.067 32.9372C103.33 30.8263 103.997 28.4132 104 25.9536V8.49898C104 7.54174 103.224 6.76543 102.267 6.76521ZM88.4069 36.3571L85.8363 35.2495C83.8885 34.4145 82.2559 32.9827 81.1737 31.1606C80.2366 29.5878 79.7413 27.7914 79.7402 25.9606V10.4906C82.7114 10.727 85.6936 10.2039 88.4069 8.97044V36.3571ZM99.1067 31.1606C98.0249 32.9834 96.3921 34.4158 94.4441 35.2512L91.8666 36.3588V8.97044C94.5799 10.2037 97.5621 10.727 100.533 10.4906L100.54 25.9606C100.539 27.7914 100.044 29.5878 99.1067 31.1606Z" fill="#193554"/>
</svg>
