<svg width="102" height="102" viewBox="0 0 102 102" fill="none" xmlns="http://www.w3.org/2000/svg">
<g clip-path="url(#clip0)">
<path d="M1.99219 92.8536H19.125C20.2251 92.8536 21.1172 91.9617 21.1172 90.8614V88.9144C27.5573 89.2089 31.8232 90.9146 36.3148 92.7111C41.3871 94.7402 46.6319 96.838 54.9844 96.838C58.6534 96.838 64.0988 95.6042 71.1699 93.1709C72.2104 92.8129 72.7635 91.6794 72.4055 90.6391C72.0473 89.5985 70.9133 89.0453 69.8734 89.4035C63.2205 91.6927 58.2111 92.8536 54.9844 92.8536C47.3993 92.8536 42.734 90.9875 37.7946 89.0116C33.1382 87.1491 28.3347 85.2297 21.1172 84.9273V64.6864C22.3942 64.3557 23.6807 63.7704 25.0159 63.161C28.9429 61.3688 33.3938 59.337 39.4945 62.7685L49.1116 68.1789C50.0039 68.6816 51.0179 68.9473 52.0439 68.9473H64.9453C67.1423 68.9473 68.9297 70.7347 68.9297 72.9317C68.9297 74.5633 67.9087 76.0554 66.3825 76.6467C65.9263 76.8254 65.4428 76.9161 64.9453 76.9161H44.6927C43.5926 76.9161 42.7005 77.808 42.7005 78.9083C42.7005 80.0085 43.5926 80.9004 44.6927 80.9004H64.9453C65.9141 80.9004 66.8596 80.7261 67.7515 80.3877C67.7674 80.3823 67.7836 80.3785 67.7995 80.3725C67.7995 80.3725 92.5789 71.2126 92.5893 71.2085C93.0489 71.03 93.534 70.9393 94.0312 70.9393C96.2282 70.9393 98.0156 72.7267 98.0156 74.9237C98.0156 76.4565 97.1201 77.8713 95.7388 78.526C95.3979 78.6903 95.0564 78.8559 94.3972 79.1698L93.8209 78.0172C93.3288 77.033 92.1313 76.6342 91.1482 77.1262C90.164 77.6183 89.7652 78.815 90.257 79.7992L90.7862 80.8576C89.4821 81.4561 87.9997 82.1252 86.3789 82.8384C85.3718 83.2817 84.9146 84.4573 85.3581 85.4643C85.8019 86.473 86.9783 86.9276 87.984 86.4853C91.903 84.7605 94.4964 83.5371 97.4403 82.129C100.21 80.8164 102 77.9883 102 74.9239C102 70.5299 98.4252 66.9551 94.0312 66.9551C93.0443 66.9551 92.0793 67.1344 91.1627 67.4884L72.7961 74.2776C72.8728 73.8371 72.9141 73.3873 72.9141 72.9317C72.9141 68.5377 69.3393 64.9629 64.9453 64.9629H52.0439C51.7016 64.9629 51.364 64.8747 51.0663 64.7069L41.4481 59.296C33.5821 54.8717 27.6749 57.5679 23.3618 59.5362C21.666 60.3102 20.2018 60.9786 19.125 60.9786H1.99219C0.892102 60.9786 0 61.8705 0 62.9708V90.8614C0 91.9617 0.892102 92.8536 1.99219 92.8536ZM3.98438 64.9629H17.1328V88.8692H3.98438V64.9629Z" fill="#193554"/>
<path d="M65.8663 56.667C66.1988 56.8855 66.5799 56.9949 66.9614 56.9949C67.3427 56.9949 67.7242 56.8855 68.0563 56.667C97.2791 37.4402 98.2419 23.2138 96.2147 16.4449C93.9962 9.03636 86.8325 5.16016 80.9027 5.16016C73.8984 5.16016 69.2691 9.16306 66.9616 11.8312C64.6542 9.16306 60.0254 5.16016 53.0223 5.16016C47.0991 5.16016 39.94 9.04293 37.7175 16.4642C35.6914 23.2285 36.6546 37.4463 65.8663 56.667ZM41.5341 17.6073C43.1803 12.1107 48.6817 9.14473 53.0221 9.14473C60.9675 9.14473 65.064 15.8668 65.2445 16.1698C65.6025 16.778 66.2556 17.1513 66.9614 17.1513C67.6692 17.1513 68.3237 16.7758 68.6811 16.165C68.7221 16.0947 72.8804 9.14473 80.9027 9.14473C85.2495 9.14473 90.7555 12.1039 92.3978 17.588C93.7557 22.1226 93.938 34.5332 66.9614 52.6117C39.9957 34.5395 40.1772 22.1384 41.5341 17.6073Z" fill="#193554"/>
<path d="M58.9688 33.0879H64.9453V39.0645C64.9453 40.1647 65.8374 41.0566 66.9375 41.0566C68.0376 41.0566 68.9297 40.1647 68.9297 39.0645V33.0879H74.9062C76.0063 33.0879 76.8984 32.196 76.8984 31.0957C76.8984 29.9954 76.0063 29.1035 74.9062 29.1035H68.9297V23.127C68.9297 22.0267 68.0376 21.1348 66.9375 21.1348C65.8374 21.1348 64.9453 22.0267 64.9453 23.127V29.1035H58.9688C57.8687 29.1035 56.9766 29.9954 56.9766 31.0957C56.9766 32.196 57.8687 33.0879 58.9688 33.0879Z" fill="#193554"/>
<path d="M78.8906 90.0645C79.9909 90.0645 80.8828 89.1725 80.8828 88.0723C80.8828 86.972 79.9909 86.0801 78.8906 86.0801C77.7904 86.0801 76.8984 86.972 76.8984 88.0723C76.8984 89.1725 77.7904 90.0645 78.8906 90.0645Z" fill="#193554"/>
</g>
<defs>
<clipPath id="clip0">
<rect width="102" height="102" fill="white"/>
</clipPath>
</defs>
</svg>
