<svg width="55" height="58" viewBox="0 0 55 58" fill="none" xmlns="http://www.w3.org/2000/svg">
<g clip-path="url(#clip0_1171:2335)">
<path d="M27.2642 6.44444V0L43.333 15.3333C43.5959 15.5841 43.5981 15.9958 43.3377 16.2492L40.9633 18.5612C40.7072 18.8106 40.2927 18.8131 40.0333 18.5669L27.2642 6.44444Z" fill="#193554"/>
<path d="M27.264 6.44444V0L11.1952 15.3333C10.9322 15.5841 10.9301 15.9958 11.1904 16.2492L13.5648 18.5612C13.821 18.8106 14.2355 18.8131 14.4949 18.5669L27.264 6.44444Z" fill="#4A607A"/>
<path d="M27.5948 31.2559L19.809 23.978C19.5415 23.728 19.5371 23.3128 19.7993 23.0574L21.8468 21.0638C22.0995 20.8178 22.5069 20.8114 22.7675 21.0493L27.5948 25.4559V31.2559Z" fill="#DDD0A4"/>
<path d="M27.5947 31.2559L35.3806 23.978C35.6481 23.728 35.6525 23.3128 35.3902 23.0574L33.3427 21.0638C33.0901 20.8178 32.6827 20.8114 32.422 21.0493L27.5947 25.4559V31.2559Z" fill="#A89060"/>
<path fill-rule="evenodd" clip-rule="evenodd" d="M27.0368 12.2441L23.7607 15.4339C23.5023 15.6857 23.5023 16.0937 23.7607 16.3453L27.0368 19.5352V12.2441Z" fill="#DDD0A4"/>
<path fill-rule="evenodd" clip-rule="evenodd" d="M27.0366 12.2441L30.3127 15.4339C30.5711 15.6857 30.5711 16.0937 30.3127 16.3453L27.0366 19.5352V12.2441Z" fill="#A89060"/>
<path d="M26.9734 34.8008C21.348 34.8008 16.3554 37.456 13.2295 41.5572C17.1659 38.7409 21.7263 37.0788 26.9734 37.0788C31.667 37.0788 36.3343 38.4088 40.023 40.7053C36.8785 37.092 32.199 34.8008 26.9734 34.8008Z" fill="#193554"/>
<path fill-rule="evenodd" clip-rule="evenodd" d="M13.2295 41.5572C16.3554 37.456 21.348 34.8008 26.9733 34.8008V37.0788C21.7263 37.0788 17.1659 38.7409 13.2295 41.5572Z" fill="#4A607A"/>
<path d="M2.12491 49.3729C2.10164 49.7077 2.06286 49.9783 2.00857 50.1847C1.95428 50.3887 1.86637 50.5611 1.74486 50.7021V50.7323H4.18804V46.926H2.28391L2.12491 49.3729ZM1.14377 51.5555V52.6316H0.232422V50.7323H0.631861C0.820596 50.6165 0.956322 50.4478 1.03905 50.2263C1.12179 50.0022 1.17479 49.6977 1.19806 49.3125L1.39972 46.1066H5.18469V50.7323H5.88274V52.6316H4.97528V51.5555H1.14377ZM10.2223 50.7323V51.5555H6.60018V46.1066H10.2223V46.9298H7.60071V48.4025H10.0788V49.1766H7.60071V50.7323H10.2223ZM15.6438 51.5555H14.6432V46.926H12.8632L12.712 49.4446C12.6681 50.1722 12.522 50.7134 12.2738 51.0683C12.0256 51.4208 11.6468 51.597 11.1375 51.597C10.9927 51.597 10.8712 51.5819 10.773 51.5517V50.6983C10.8505 50.7159 10.9307 50.7247 11.0134 50.7247C11.2694 50.7247 11.4555 50.619 11.5718 50.4076C11.6882 50.1936 11.7593 49.8537 11.7851 49.388L11.9674 46.1066H15.6438V51.5555ZM19.1728 46.016C19.9872 46.016 20.6323 46.269 21.108 46.775C21.5863 47.281 21.8254 47.9669 21.8254 48.8329C21.8254 49.6989 21.5863 50.3849 21.108 50.8909C20.6323 51.3944 19.9872 51.6461 19.1728 51.6461C18.3558 51.6461 17.7082 51.3944 17.2299 50.8909C16.7542 50.3849 16.5163 49.6989 16.5163 48.8329C16.5163 47.9669 16.7542 47.281 17.2299 46.775C17.7082 46.269 18.3558 46.016 19.1728 46.016ZM20.3634 47.3867C20.0686 47.0268 19.6718 46.8468 19.1728 46.8468C18.6739 46.8468 18.277 47.0255 17.9823 47.3829C17.6875 47.7404 17.5402 48.2237 17.5402 48.8329C17.5402 49.4396 17.6875 49.9217 17.9823 50.2791C18.277 50.6366 18.6739 50.8154 19.1728 50.8154C19.6718 50.8154 20.0686 50.6366 20.3634 50.2791C20.6581 49.9217 20.8055 49.4396 20.8055 48.8329C20.8055 48.2263 20.6581 47.7441 20.3634 47.3867ZM29.1278 48.7008L31.5554 51.5555H30.3028L28.2048 49.0708H28.1738V51.5555H27.1965V49.0708H27.1655L25.0519 51.5555H23.8304L26.2386 48.7121L23.9971 46.1066H25.1605L27.1655 48.4893H27.1965V46.1066H28.1738V48.4893H28.2048L30.2136 46.1066H31.3576L29.1278 48.7008ZM35.9027 51.5555V47.6359H35.8523L33.1338 51.5555H32.1643V46.1066H33.161V50.0375H33.2113L35.926 46.1066H36.8955V51.5555H35.9027ZM39.0827 49.1652V48.3798H39.8273C40.1324 48.3798 40.3793 48.303 40.568 48.1494C40.7567 47.9959 40.8511 47.7958 40.8511 47.5491C40.8511 47.3049 40.7619 47.1123 40.5835 46.9713C40.4077 46.8279 40.166 46.7561 39.8583 46.7561C39.5481 46.7561 39.2973 46.8304 39.106 46.9789C38.9147 47.1274 38.8087 47.3301 38.788 47.5868H37.8534C37.8793 47.0909 38.0744 46.6982 38.439 46.4087C38.8035 46.1167 39.2857 45.9707 39.8855 45.9707C40.4568 45.9707 40.9222 46.1079 41.2816 46.3823C41.641 46.6541 41.8206 47.0066 41.8206 47.4396C41.8206 47.7441 41.7237 48.0123 41.5298 48.2439C41.3359 48.4755 41.0838 48.6252 40.7735 48.6932V48.7234C41.1484 48.7662 41.4457 48.9085 41.6655 49.1501C41.8853 49.3918 41.9951 49.6964 41.9951 50.0639C41.9951 50.5296 41.7922 50.9173 41.3863 51.2269C40.983 51.5366 40.4762 51.6914 39.8661 51.6914C39.243 51.6914 38.735 51.5416 38.342 51.2421C37.9516 50.9425 37.7435 50.546 37.7176 50.0526H38.6794C38.7001 50.3068 38.8177 50.5095 39.0323 50.6605C39.2495 50.8091 39.5287 50.8833 39.87 50.8833C40.1983 50.8833 40.4633 50.8028 40.6649 50.6416C40.8666 50.4805 40.9675 50.2691 40.9675 50.0073C40.9675 49.743 40.8679 49.5365 40.6688 49.388C40.4723 49.2395 40.1983 49.1652 39.8467 49.1652H39.0827ZM47.533 51.5555H46.5363V49.1916H43.814V51.5555H42.8134V46.1066H43.814V48.3722H46.5363V46.1066H47.533V51.5555ZM52.3379 51.5555V47.6359H52.2875L49.569 51.5555H48.5994V46.1066H49.5961V50.0375H49.6466L52.3611 46.1066H53.3307V51.5555H52.3379Z" fill="#193554"/>
<path d="M10.083 55.3684H9.6254C9.59826 55.274 9.54717 55.1973 9.47225 55.1381C9.39726 55.0789 9.30222 55.0493 9.18719 55.0493C9.03463 55.0493 8.91311 55.1091 8.82264 55.2287C8.73348 55.347 8.68888 55.5075 8.68888 55.7102C8.68888 55.9153 8.73348 56.077 8.82264 56.1954C8.91311 56.3124 9.03529 56.371 9.1891 56.371C9.3042 56.371 9.39918 56.3433 9.47417 56.2879C9.55041 56.2325 9.60217 56.1544 9.6293 56.0538H10.0869C10.0572 56.2652 9.96149 56.4345 9.79993 56.5617C9.63963 56.6875 9.43472 56.7504 9.18527 56.7504C8.88406 56.7504 8.64493 56.6573 8.46782 56.471C8.2907 56.2847 8.20215 56.0311 8.20215 55.7102C8.20215 55.393 8.2907 55.14 8.46782 54.9511C8.64493 54.7624 8.88273 54.668 9.18136 54.668C9.43214 54.668 9.63771 54.734 9.79801 54.8662C9.95824 54.9984 10.0533 55.1657 10.083 55.3684ZM11.9736 54.7095V55.072H11.3415V56.7108H10.8625V55.072H10.2304V54.7095H11.9736ZM13.4026 54.6755C13.6638 54.6755 13.8712 54.768 14.0251 54.9531C14.1789 55.1381 14.2558 55.3905 14.2558 55.7102C14.2558 56.0286 14.1795 56.2803 14.027 56.4653C13.8744 56.6503 13.6689 56.7429 13.4104 56.7429C13.263 56.7429 13.1331 56.7108 13.0206 56.6466C12.9082 56.5811 12.8235 56.4918 12.7666 56.3785H12.757V57.3697H12.2741V54.7095H12.7453V55.055H12.755C12.8145 54.9367 12.9004 54.8442 13.0129 54.7775C13.1253 54.7095 13.2553 54.6755 13.4026 54.6755ZM13.2553 56.3577C13.4117 56.3577 13.5351 56.2998 13.6256 56.184C13.7161 56.067 13.7613 55.909 13.7613 55.7102C13.7613 55.5125 13.7155 55.3552 13.6237 55.2381C13.5332 55.1211 13.4104 55.0626 13.2553 55.0626C13.1053 55.0626 12.9844 55.1217 12.8926 55.24C12.8009 55.3584 12.7543 55.515 12.7531 55.7102C12.7543 55.9065 12.8009 56.0638 12.8926 56.1822C12.9844 56.2992 13.1053 56.3577 13.2553 56.3577ZM15.3591 56.3879C15.4974 56.3879 15.6138 56.3483 15.7081 56.269C15.8038 56.1885 15.8516 56.0884 15.8516 55.9688V55.8158L15.3766 55.8442C15.2602 55.8517 15.1697 55.88 15.1051 55.9291C15.0417 55.977 15.0101 56.0406 15.0101 56.1198C15.0101 56.2017 15.0417 56.2671 15.1051 56.3162C15.1697 56.364 15.2544 56.3879 15.3591 56.3879ZM15.2137 56.7429C15.0133 56.7429 14.8485 56.6869 14.7192 56.5749C14.5912 56.4628 14.5273 56.3174 14.5273 56.1387C14.5273 55.9612 14.5945 55.8209 14.7289 55.7177C14.8646 55.6145 15.0579 55.5553 15.3087 55.5402L15.8516 55.51V55.3665C15.8516 55.2621 15.8174 55.1809 15.7489 55.1229C15.6816 55.0651 15.5879 55.0361 15.4677 55.0361C15.3552 55.0361 15.2635 55.0607 15.1923 55.1097C15.1212 55.1588 15.0779 55.2255 15.0625 55.3099H14.6145C14.6248 55.1198 14.7082 54.9656 14.8646 54.8473C15.0224 54.7278 15.2298 54.668 15.4871 54.668C15.7417 54.668 15.9453 54.7284 16.0979 54.8492C16.2517 54.97 16.3286 55.1311 16.3286 55.3325V56.7108H15.8632V56.3917H15.8536C15.7954 56.4987 15.7075 56.5843 15.5898 56.6485C15.4722 56.7114 15.3468 56.7429 15.2137 56.7429ZM17.556 55.9933H17.5463L17.1198 56.7108H16.6059L17.269 55.712L16.6117 54.7095H17.1546L17.5696 55.4118H17.5793L17.9884 54.7095H18.5178L17.8565 55.6988L18.51 56.7108H17.9826L17.556 55.9933ZM20.385 56.4729C20.2054 56.6579 19.9636 56.7504 19.6598 56.7504C19.3561 56.7504 19.1143 56.6579 18.9346 56.4729C18.755 56.2866 18.6651 56.0324 18.6651 55.7102C18.6651 55.3892 18.7556 55.1356 18.9366 54.9493C19.1176 54.7617 19.3587 54.668 19.6598 54.668C19.9624 54.668 20.2034 54.7617 20.3831 54.9493C20.5641 55.1356 20.6546 55.3892 20.6546 55.7102C20.6546 56.0324 20.5647 56.2866 20.385 56.4729ZM19.2914 56.2029C19.3819 56.32 19.5048 56.3785 19.6598 56.3785C19.815 56.3785 19.9378 56.32 20.0283 56.2029C20.1188 56.0859 20.164 55.9216 20.164 55.7102C20.164 55.4999 20.1188 55.3363 20.0283 55.2192C19.9378 55.101 19.815 55.0418 19.6598 55.0418C19.506 55.0418 19.3832 55.101 19.2914 55.2192C19.201 55.3363 19.1557 55.4999 19.1557 55.7102C19.1557 55.9216 19.201 56.0859 19.2914 56.2029ZM21.8645 55.0285H21.4748V55.527H21.8277C22.0552 55.527 22.169 55.4427 22.169 55.274C22.169 55.196 22.1424 55.1356 22.0894 55.0928C22.0377 55.05 21.9627 55.0285 21.8645 55.0285ZM21.8568 55.8253H21.4748V56.3917H21.8956C22.0106 56.3917 22.0985 56.3678 22.1593 56.32C22.22 56.2709 22.2504 56.2004 22.2504 56.1085C22.2504 55.9197 22.1192 55.8253 21.8568 55.8253ZM21.0017 56.7108V54.7095H21.977C22.1838 54.7095 22.346 54.7548 22.4637 54.8454C22.5813 54.9348 22.6402 55.0588 22.6402 55.2174C22.6402 55.3218 22.6052 55.4156 22.5354 55.4987C22.4669 55.5805 22.3816 55.6302 22.2795 55.6478V55.6629C22.4152 55.6806 22.5245 55.7321 22.6072 55.8178C22.6899 55.9034 22.7313 56.0085 22.7313 56.133C22.7313 56.3105 22.6647 56.4515 22.5315 56.556C22.3997 56.6592 22.22 56.7108 21.9925 56.7108H21.0017ZM23.8404 56.3879C23.9787 56.3879 24.095 56.3483 24.1894 56.269C24.2851 56.1885 24.3329 56.0884 24.3329 55.9688V55.8158L23.8578 55.8442C23.7415 55.8517 23.651 55.88 23.5864 55.9291C23.5231 55.977 23.4914 56.0406 23.4914 56.1198C23.4914 56.2017 23.5231 56.2671 23.5864 56.3162C23.651 56.364 23.7357 56.3879 23.8404 56.3879ZM23.6949 56.7429C23.4946 56.7429 23.3298 56.6869 23.2005 56.5749C23.0725 56.4628 23.0085 56.3174 23.0085 56.1387C23.0085 55.9612 23.0758 55.8209 23.2102 55.7177C23.346 55.6145 23.5392 55.5553 23.79 55.5402L24.3329 55.51V55.3665C24.3329 55.2621 24.2986 55.1809 24.2301 55.1229C24.1629 55.0651 24.0692 55.0361 23.949 55.0361C23.8365 55.0361 23.7447 55.0607 23.6736 55.1097C23.6026 55.1588 23.5592 55.2255 23.5437 55.3099H23.0958C23.1062 55.1198 23.1896 54.9656 23.346 54.8473C23.5037 54.7278 23.7111 54.668 23.9684 54.668C24.223 54.668 24.4266 54.7284 24.5792 54.8492C24.733 54.97 24.8099 55.1311 24.8099 55.3325V56.7108H24.3446V56.3917H24.3348C24.2767 56.4987 24.1888 56.5843 24.0711 56.6485C23.9535 56.7114 23.8281 56.7429 23.6949 56.7429ZM26.0451 55.697H26.4019V55.0682H26.0451C25.9339 55.0682 25.8453 55.0972 25.7794 55.155C25.7148 55.213 25.6825 55.2917 25.6825 55.391C25.6825 55.4804 25.7155 55.5541 25.7814 55.6119C25.8473 55.6686 25.9352 55.697 26.0451 55.697ZM26.4019 56.7108V56.0406H26.1265L25.6475 56.7108H25.1085L25.6611 55.9669C25.5176 55.9241 25.4052 55.853 25.3238 55.7535C25.2436 55.6529 25.2035 55.5327 25.2035 55.393C25.2035 55.1828 25.2759 55.0166 25.4207 54.8945C25.5667 54.7711 25.7626 54.7095 26.0082 54.7095H26.875V56.7108H26.4019ZM29.0428 55.644L29.9542 56.7108H29.3627L28.5988 55.8158H28.5833V56.7108H28.1024V54.7095H28.5833V55.544H28.5988L29.3511 54.7095H29.9134L29.0428 55.644ZM31.7788 56.4729C31.5991 56.6579 31.3574 56.7504 31.0536 56.7504C30.7498 56.7504 30.5081 56.6579 30.3284 56.4729C30.1487 56.2866 30.0589 56.0324 30.0589 55.7102C30.0589 55.3892 30.1493 55.1356 30.3303 54.9493C30.5112 54.7617 30.7524 54.668 31.0536 54.668C31.356 54.668 31.5972 54.7617 31.7768 54.9493C31.9578 55.1356 32.0483 55.3892 32.0483 55.7102C32.0483 56.0324 31.9585 56.2866 31.7788 56.4729ZM30.6851 56.2029C30.7757 56.32 30.8984 56.3785 31.0536 56.3785C31.2087 56.3785 31.3315 56.32 31.422 56.2029C31.5124 56.0859 31.5577 55.9216 31.5577 55.7102C31.5577 55.4999 31.5124 55.3363 31.422 55.2192C31.3315 55.101 31.2087 55.0418 31.0536 55.0418C30.8998 55.0418 30.7769 55.101 30.6851 55.2192C30.5946 55.3363 30.5494 55.4999 30.5494 55.7102C30.5494 55.9216 30.5946 56.0859 30.6851 56.2029ZM32.8549 56.7108H32.3953V54.7095H33.01L33.6169 56.1066H33.6325L34.2394 54.7095H34.8443V56.7108H34.3848V55.342H34.3693L33.7895 56.6182H33.4483L32.8685 55.342H32.8549V56.7108ZM36.6069 56.7108V55.072H35.7576V56.7108H35.2767V54.7095H37.0897V56.7108H36.6069ZM38.2745 56.3879C38.4128 56.3879 38.5291 56.3483 38.6235 56.269C38.7192 56.1885 38.767 56.0884 38.767 55.9688V55.8158L38.2919 55.8442C38.1756 55.8517 38.0851 55.88 38.0205 55.9291C37.9571 55.977 37.9255 56.0406 37.9255 56.1198C37.9255 56.2017 37.9571 56.2671 38.0205 56.3162C38.0851 56.364 38.1698 56.3879 38.2745 56.3879ZM38.129 56.7429C37.9287 56.7429 37.7639 56.6869 37.6346 56.5749C37.5066 56.4628 37.4426 56.3174 37.4426 56.1387C37.4426 55.9612 37.5099 55.8209 37.6443 55.7177C37.7801 55.6145 37.9733 55.5553 38.2241 55.5402L38.767 55.51V55.3665C38.767 55.2621 38.7327 55.1809 38.6642 55.1229C38.597 55.0651 38.5033 55.0361 38.3831 55.0361C38.2706 55.0361 38.1788 55.0607 38.1077 55.1097C38.0367 55.1588 37.9933 55.2255 37.9778 55.3099H37.5299C37.5403 55.1198 37.6236 54.9656 37.7801 54.8473C37.9378 54.7278 38.1452 54.668 38.4025 54.668C38.6571 54.668 38.8607 54.7284 39.0133 54.8492C39.1671 54.97 39.244 55.1311 39.244 55.3325V56.7108H38.7787V56.3917H38.7689C38.7108 56.4987 38.6229 56.5843 38.5052 56.6485C38.3876 56.7114 38.2622 56.7429 38.129 56.7429ZM41.0163 56.7108V55.8612H40.1476V56.7108H39.6667V54.7095H40.1476V55.4987H41.0163V54.7095H41.4972V56.7108H41.0163ZM42.4046 56.7108H41.9315V54.7095H42.4046V56.0462H42.4201L43.314 54.7095H43.7871V56.7108H43.314V55.3646H43.2985L42.4046 56.7108ZM45.032 55.697H45.3888V55.0682H45.032C44.9208 55.0682 44.8322 55.0972 44.7663 55.155C44.7017 55.213 44.6694 55.2917 44.6694 55.391C44.6694 55.4804 44.7024 55.5541 44.7683 55.6119C44.8342 55.6686 44.9221 55.697 45.032 55.697ZM45.3888 56.7108V56.0406H45.1135L44.6345 56.7108H44.0955L44.648 55.9669C44.5046 55.9241 44.3921 55.853 44.3107 55.7535C44.2305 55.6529 44.1904 55.5327 44.1904 55.393C44.1904 55.1828 44.2628 55.0166 44.4076 54.8945C44.5537 54.7711 44.7495 54.7095 44.9951 54.7095H45.8619V56.7108H45.3888Z" fill="#A89060"/>
</g>
<defs>
<clipPath id="clip0_1171:2335">
<rect width="54.272" height="58" fill="white" transform="translate(0.12793)"/>
</clipPath>
</defs>
</svg>
