<svg width="18" height="18" viewBox="0 0 18 18" fill="none" xmlns="http://www.w3.org/2000/svg">
<path d="M17.6466 14.2312L17.0911 13.9103C17.1792 13.4527 17.1792 12.9825 17.0911 12.5249L17.6466 12.2063C17.7434 12.1503 17.814 12.0582 17.843 11.9502C17.872 11.8422 17.8568 11.7271 17.801 11.6303L16.9572 10.1678C16.9012 10.0709 16.8091 10.0003 16.701 9.97136C16.5929 9.94246 16.4778 9.95766 16.381 10.0136L15.8261 10.3334C15.4718 10.0314 15.065 9.79714 14.626 9.64238V9C14.626 8.88811 14.5815 8.78081 14.5024 8.70169C14.4233 8.62257 14.316 8.57812 14.2041 8.57812H12.5166C12.4047 8.57812 12.2974 8.62257 12.2183 8.70169C12.1392 8.78081 12.0947 8.88811 12.0947 9V9.64238C11.6554 9.79702 11.2484 10.0313 10.8941 10.3334L10.3397 10.0125C10.2428 9.95653 10.1277 9.94133 10.0197 9.97024C9.91159 9.99914 9.81942 10.0698 9.76343 10.1666L8.91968 11.6291C8.86383 11.726 8.84872 11.8411 8.87767 11.9491C8.90662 12.0571 8.97727 12.1492 9.07409 12.2051L9.62927 12.526C9.54152 12.9837 9.54152 13.4538 9.62927 13.9115L9.07409 14.2312C8.97727 14.2872 8.90662 14.3793 8.87767 14.4873C8.84872 14.5953 8.86383 14.7104 8.91968 14.8072L9.76343 16.2697C9.81942 16.3666 9.91159 16.4372 10.0197 16.4661C10.1277 16.495 10.2428 16.4798 10.3397 16.4239L10.8941 16.1041C11.2484 16.4062 11.6554 16.6405 12.0947 16.7951V17.4375C12.0947 17.5494 12.1392 17.6567 12.2183 17.7358C12.2974 17.8149 12.4047 17.8594 12.5166 17.8594H14.2041C14.316 17.8594 14.4233 17.8149 14.5024 17.7358C14.5815 17.6567 14.626 17.5494 14.626 17.4375V16.7951C15.065 16.6404 15.4718 16.4061 15.8261 16.1041L16.381 16.425C16.4778 16.481 16.5929 16.4962 16.701 16.4673C16.8091 16.4384 16.9012 16.3677 16.9572 16.2709L17.801 14.8084C17.8288 14.7604 17.8469 14.7073 17.8542 14.6523C17.8615 14.5973 17.8579 14.5414 17.8435 14.4878C17.8292 14.4342 17.8044 14.3839 17.7706 14.3399C17.7368 14.2959 17.6947 14.259 17.6466 14.2312ZM13.3603 15.1875C12.971 15.1875 12.5903 15.072 12.2666 14.8557C11.9428 14.6394 11.6905 14.3319 11.5414 13.9722C11.3924 13.6124 11.3535 13.2166 11.4294 12.8347C11.5054 12.4528 11.6929 12.102 11.9682 11.8266C12.2436 11.5513 12.5944 11.3638 12.9763 11.2878C13.3582 11.2119 13.754 11.2509 14.1137 11.3999C14.4735 11.5489 14.781 11.8012 14.9973 12.125C15.2136 12.4487 15.3291 12.8294 15.3291 13.2188C15.3285 13.7407 15.1209 14.2411 14.7518 14.6102C14.3827 14.9793 13.8823 15.1869 13.3603 15.1875Z" fill="#A89060"/>
<path fill-rule="evenodd" clip-rule="evenodd" d="M9.38484 7.20169C10.3111 6.24764 10.8348 4.97381 10.8473 3.64416C10.8479 1.58147 9.40734 0.140625 7.34465 0.140625C5.28197 0.140625 3.8414 1.58147 3.8414 3.64416C3.85397 4.97439 4.37831 6.24869 5.30559 7.20253C3.82881 7.56672 2.51703 8.41609 1.58044 9.61455C0.643849 10.813 0.136664 13.4865 0.140155 15.0075V15.5918H8.22103V14.7724H0.988405C1.03102 13.6095 1.41405 11.2894 2.09 10.3423C2.76595 9.39507 3.70508 8.66716 4.7909 8.24878C4.97733 8.18365 5.40399 8.04201 5.61919 7.9965C5.8358 7.94558 6.05503 7.90652 6.2759 7.8795C6.61173 8.03268 6.97653 8.11195 7.34564 8.11195C7.71475 8.11195 8.07955 8.03268 8.41537 7.8795C8.63592 7.9061 8.8548 7.94506 9.07097 7.99622C9.25969 8.0442 9.68939 8.16217 9.89841 8.25019C10.3805 8.43988 10.8359 8.69136 11.2532 8.99831C11.2548 8.69922 11.3632 8.41055 11.5589 8.18437C10.8965 7.73355 10.1609 7.40106 9.38484 7.20169ZM7.34465 0.984375C5.72915 0.984375 4.68515 2.02837 4.68515 3.64416C4.68515 5.2875 5.83209 7.26778 7.34465 7.26778C8.8665 7.26778 10.0042 5.26584 10.0042 3.64416C10.0042 2.02837 8.96015 0.984375 7.34465 0.984375Z" fill="#193554"/>
</svg>
