<svg width="18" height="18" viewBox="0 0 18 18" fill="none" xmlns="http://www.w3.org/2000/svg">
<g clip-path="url(#clip0)">
<path d="M16.125 3.00098H1.87499C0.8415 3.00098 0 3.84248 0 4.876V13.126C0 14.1595 0.8415 15.001 1.87499 15.001H16.125C17.1585 15.001 18 14.1595 18 13.126V4.876C18 3.84248 17.1585 3.00098 16.125 3.00098ZM17.25 13.126C17.25 13.7462 16.7453 14.251 16.125 14.251H1.87499C1.25473 14.251 0.749988 13.7462 0.749988 13.126V4.876C0.749988 4.25574 1.25473 3.751 1.87499 3.751H16.125C16.7452 3.751 17.25 4.25574 17.25 4.876V13.126H17.25Z" fill="#193554"/>
<path d="M17.625 5.25098H0.375012C0.168012 5.25098 0 5.41899 0 5.62599V7.87599C0 8.08299 0.168012 8.251 0.375012 8.251H17.625C17.832 8.251 18 8.08299 18 7.87599V5.62599C18 5.41899 17.832 5.25098 17.625 5.25098ZM17.25 7.50098H0.749988V6.00097H17.25V7.50098H17.25Z" fill="#A89060"/>
<path d="M7.12501 10.499H2.62501C2.41801 10.499 2.25 10.667 2.25 10.874C2.25 11.081 2.41801 11.249 2.62501 11.249H7.12501C7.33201 11.249 7.50002 11.081 7.50002 10.874C7.50002 10.667 7.33201 10.499 7.12501 10.499Z" fill="#193554"/>
<path d="M7.12501 12.001H2.62501C2.41801 12.001 2.25 12.169 2.25 12.376C2.25 12.583 2.41801 12.751 2.62501 12.751H7.12501C7.33201 12.751 7.50002 12.583 7.50002 12.376C7.49999 12.169 7.33201 12.001 7.12501 12.001Z" fill="#193554"/>
<path d="M14.624 9.75098H13.874C13.2538 9.75098 12.749 10.2557 12.749 10.876V11.626C12.749 12.2462 13.2538 12.751 13.874 12.751H14.624C15.2443 12.751 15.749 12.2462 15.749 11.626V10.876C15.749 10.2558 15.2443 9.75098 14.624 9.75098ZM14.999 11.626C14.999 11.833 14.831 12.001 14.624 12.001H13.874C13.667 12.001 13.499 11.833 13.499 11.626V10.876C13.499 10.669 13.667 10.501 13.874 10.501H14.624C14.831 10.501 14.999 10.669 14.999 10.876V11.626Z" fill="#193554"/>
</g>
<defs>
<clipPath id="clip0">
<rect width="18" height="18" fill="white"/>
</clipPath>
</defs>
</svg>
