<svg width="18" height="18" viewBox="0 0 18 18" fill="none" xmlns="http://www.w3.org/2000/svg">
<path d="M13.2188 8.57813C12.3009 8.57812 11.4037 8.85029 10.6406 9.36021C9.87741 9.87013 9.28261 10.5949 8.93137 11.4429C8.58014 12.2908 8.48824 13.2239 8.6673 14.1241C8.84636 15.0243 9.28833 15.8512 9.93733 16.5002C10.5863 17.1492 11.4132 17.5911 12.3134 17.7702C13.2136 17.9493 14.1467 17.8574 14.9946 17.5061C15.8426 17.1549 16.5674 16.5601 17.0773 15.7969C17.5872 15.0338 17.8594 14.1366 17.8594 13.2188C17.858 11.9884 17.3686 10.8089 16.4986 9.93889C15.6286 9.06891 14.4491 8.57954 13.2188 8.57813ZM15.3281 14.3325H11.1094C10.9975 14.3325 10.8902 14.2881 10.8111 14.2089C10.7319 14.1298 10.6875 14.0225 10.6875 13.9106C10.6875 13.7987 10.7319 13.6914 10.8111 13.6123C10.8902 13.5332 10.9975 13.4887 11.1094 13.4887H15.3281C15.44 13.4887 15.5473 13.5332 15.6264 13.6123C15.7056 13.6914 15.75 13.7987 15.75 13.9106C15.75 14.0225 15.7056 14.1298 15.6264 14.2089C15.5473 14.2881 15.44 14.3325 15.3281 14.3325ZM15.3281 12.9488H11.1094C10.9975 12.9488 10.8902 12.9043 10.8111 12.8252C10.7319 12.7461 10.6875 12.6388 10.6875 12.5269C10.6875 12.415 10.7319 12.3077 10.8111 12.2286C10.8902 12.1494 10.9975 12.105 11.1094 12.105H15.3281C15.44 12.105 15.5473 12.1494 15.6264 12.2286C15.7056 12.3077 15.75 12.415 15.75 12.5269C15.75 12.6388 15.7056 12.7461 15.6264 12.8252C15.5473 12.9043 15.44 12.9488 15.3281 12.9488Z" fill="#A89060"/>
<path d="M3.1084 4.88672H5.8219C5.93379 4.88672 6.04109 4.84227 6.12021 4.76315C6.19933 4.68404 6.24377 4.57673 6.24377 4.46484C6.24377 4.35296 6.19933 4.24565 6.12021 4.16653C6.04109 4.08742 5.93379 4.04297 5.8219 4.04297H3.1084C2.99651 4.04297 2.8892 4.08742 2.81009 4.16653C2.73097 4.24565 2.68652 4.35296 2.68652 4.46484C2.68652 4.57673 2.73097 4.68404 2.81009 4.76315C2.8892 4.84227 2.99651 4.88672 3.1084 4.88672Z" fill="#193554"/>
<path d="M5.02735 10.4414C5.02735 10.3302 4.99436 10.2214 4.93255 10.1289C4.87074 10.0364 4.78289 9.9643 4.68011 9.92172C4.57732 9.87915 4.46422 9.86801 4.35511 9.88971C4.24599 9.91142 4.14577 9.96499 4.0671 10.0437C3.98843 10.1223 3.93486 10.2226 3.91315 10.3317C3.89145 10.4408 3.90259 10.5539 3.94516 10.6567C3.98774 10.7595 4.05983 10.8473 4.15234 10.9091C4.24484 10.9709 4.35359 11.0039 4.46485 11.0039C4.61403 11.0039 4.75711 10.9446 4.8626 10.8392C4.96809 10.7337 5.02735 10.5906 5.02735 10.4414Z" fill="#193554"/>
<path d="M4.46484 14.5898C4.7755 14.5898 5.02734 14.338 5.02734 14.0273C5.02734 13.7167 4.7755 13.4648 4.46484 13.4648C4.15418 13.4648 3.90234 13.7167 3.90234 14.0273C3.90234 14.338 4.15418 14.5898 4.46484 14.5898Z" fill="#193554"/>
<path d="M7.10156 12.2695C7.10156 12.1576 7.05712 12.0503 6.978 11.9712C6.89888 11.8921 6.79158 11.8477 6.67969 11.8477H2.25C2.13811 11.8477 2.03081 11.8921 1.95169 11.9712C1.87257 12.0503 1.82812 12.1576 1.82812 12.2695C1.82812 12.3814 1.87257 12.4887 1.95169 12.5678C2.03081 12.647 2.13811 12.6914 2.25 12.6914H6.67969C6.79158 12.6914 6.89888 12.647 6.978 12.5678C7.05712 12.4887 7.10156 12.3814 7.10156 12.2695Z" fill="#193554"/>
<path d="M14.0387 4.02169H12.6701V2.69531C12.6701 2.58342 12.6257 2.47612 12.5466 2.397C12.4674 2.31789 12.3601 2.27344 12.2482 2.27344C12.1364 2.27344 12.0291 2.31789 11.9499 2.397C11.8708 2.47612 11.8264 2.58342 11.8264 2.69531V4.02169H10.5C10.3881 4.02169 10.2808 4.06614 10.2017 4.14525C10.1226 4.22437 10.0781 4.33167 10.0781 4.44356C10.0781 4.55545 10.1226 4.66276 10.2017 4.74187C10.2808 4.82099 10.3881 4.86544 10.5 4.86544H11.8264V6.234C11.8264 6.34589 11.8708 6.45319 11.9499 6.53231C12.0291 6.61143 12.1364 6.65588 12.2482 6.65588C12.3601 6.65588 12.4674 6.61143 12.5466 6.53231C12.6257 6.45319 12.6701 6.34589 12.6701 6.234V4.86544H14.0387C14.1506 4.86544 14.2579 4.82099 14.337 4.74187C14.4161 4.66276 14.4606 4.55545 14.4606 4.44356C14.4606 4.33167 14.4161 4.22437 14.337 4.14525C14.2579 4.06614 14.1506 4.02169 14.0387 4.02169Z" fill="#193554"/>
<path d="M15.3281 0.140625H1.40625C1.0707 0.140997 0.748999 0.274459 0.511729 0.511729C0.274459 0.748999 0.140997 1.0707 0.140625 1.40625V15.3281C0.140997 15.6637 0.274459 15.9854 0.511729 16.2226C0.748999 16.4599 1.0707 16.5934 1.40625 16.5938H8.90494C8.69725 16.3299 8.51432 16.0474 8.35847 15.75H1.40625C1.29436 15.75 1.18706 15.7056 1.10794 15.6264C1.02882 15.5473 0.984375 15.44 0.984375 15.3281V8.78906H7.94531V11.7295C8.1218 11.1071 8.40749 10.5209 8.78906 9.99844V8.78906H9.99844C10.5209 8.40749 11.1071 8.1218 11.7295 7.94531H8.78906V0.984375H15.3281C15.44 0.984375 15.5473 1.02882 15.6264 1.10794C15.7056 1.18706 15.75 1.29436 15.75 1.40625V8.35847C16.0474 8.51432 16.3299 8.69725 16.5938 8.90494V1.40625C16.5934 1.0707 16.4599 0.748999 16.2226 0.511729C15.9854 0.274459 15.6637 0.140997 15.3281 0.140625ZM7.94531 7.94531H0.984375V1.40625C0.984375 1.29436 1.02882 1.18706 1.10794 1.10794C1.18706 1.02882 1.29436 0.984375 1.40625 0.984375H7.94531V7.94531Z" fill="#193554"/>
</svg>
