<svg width="20" height="20" viewBox="0 0 20 20" fill="none" xmlns="http://www.w3.org/2000/svg">
<path d="M17.0644 3.64434L1.47425 5.68701C0.817443 5.77304 0.274716 6.21535 0.057753 6.84123C-0.159175 7.46717 -0.00653649 8.15047 0.456162 8.62452L4.49039 12.7577L6.05276 18.3181C6.23194 18.9558 6.74735 19.4297 7.39789 19.5548C8.04968 19.6802 8.70355 19.43 9.10576 18.9052L18.6699 6.425C19.1053 5.85678 19.1535 5.11865 18.7955 4.49868C18.4376 3.8787 17.7743 3.55134 17.0644 3.64434ZM17.8327 5.78346L8.2686 18.2636C8.10773 18.4734 7.85676 18.569 7.59706 18.519C7.3374 18.4691 7.13971 18.2873 7.06815 18.0328L5.58025 12.7374L10.1187 10.1172C10.371 9.97152 10.4574 9.64898 10.3118 9.39674C10.1661 9.14449 9.84358 9.05807 9.59134 9.2037L5.0529 11.824L1.21098 7.88783C1.0263 7.6986 0.967722 7.43648 1.0543 7.18665C1.14088 6.93681 1.34901 6.76721 1.61124 6.7328L17.2014 4.69014C17.6213 4.63512 17.8286 4.93333 17.8821 5.02604C17.9356 5.11875 18.0902 5.44736 17.8327 5.78346Z" fill="#193554"/>
<path fill-rule="evenodd" clip-rule="evenodd" d="M5.0529 11.824L5.58025 12.7374L10.1187 10.1172C10.371 9.97152 10.4574 9.64898 10.3118 9.39674C10.1661 9.14449 9.84358 9.05807 9.59134 9.2037L5.0529 11.824Z" fill="#A89060"/>
</svg>
