<svg width="18" height="18" viewBox="0 0 18 18" fill="none" xmlns="http://www.w3.org/2000/svg">
<path d="M8.94327 5.44545C9.77589 5.44545 10.2761 5.88957 10.2761 6.63875C10.2761 7.99938 7.84732 8.37442 7.84732 10.0257C7.84732 10.4699 8.13802 10.9553 8.73511 10.9553C9.65117 10.9553 9.54037 10.2752 9.87368 9.78888C10.3174 9.13705 12.3859 8.44305 12.3859 6.6383C12.3859 4.68191 10.6377 3.8623 8.86072 3.8623C7.16812 3.8623 5.61279 5.06996 5.61279 6.43059C5.61279 6.98552 6.02955 7.27712 6.51539 7.27712C7.86077 7.27757 7.16722 5.44545 8.94327 5.44545Z" fill="#A89060"/>
<path d="M9.92907 12.9965C9.92907 12.3716 9.41542 11.8584 8.79095 11.8584C8.16649 11.8584 7.65283 12.3725 7.65283 12.9965C7.65283 13.6214 8.16649 14.1346 8.79095 14.1346C9.41542 14.1346 9.92907 13.6214 9.92907 12.9965Z" fill="#A89060"/>
<path d="M18 9C18 4.03748 13.9625 0 9 0C4.03748 0 0 4.03748 0 9C0 13.9625 4.03748 18 9 18C13.9625 18 18 13.963 18 9ZM0.897219 9C0.897219 4.5323 4.5323 0.897219 9 0.897219C13.4677 0.897219 17.1028 4.5323 17.1028 9C17.1028 13.4677 13.4677 17.1028 9 17.1028C4.5323 17.1028 0.897219 13.4677 0.897219 9Z" fill="#193554"/>
</svg>
