<svg width="18" height="18" viewBox="0 0 18 18" fill="none" xmlns="http://www.w3.org/2000/svg">
<g clip-path="url(#clip0)">
<path d="M15.9375 15.75H2.06255C0.924774 15.75 0 14.8252 0 13.6875V4.31255C0 3.17477 0.924774 2.25 2.06255 2.25H15.9375C17.0752 2.25 18 3.17477 18 4.31255V13.6875C18 14.8252 17.0752 15.75 15.9375 15.75ZM2.06255 3.375C1.54578 3.375 1.125 3.79578 1.125 4.31255V13.6875C1.125 14.2042 1.54578 14.625 2.06255 14.625H15.9375C16.4542 14.625 16.875 14.2042 16.875 13.6875V4.31255C16.875 3.79578 16.4542 3.375 15.9375 3.375H2.06255Z" fill="#193554"/>
<path d="M5.62495 9.00005C4.59142 9.00005 3.75 8.15849 3.75 7.12509C3.75 6.09155 4.59142 5.25 5.62495 5.25C6.65849 5.25 7.49991 6.09155 7.49991 7.12509C7.49991 8.15849 6.65849 9.00005 5.62495 9.00005ZM5.62495 6.375C5.21173 6.375 4.875 6.71173 4.875 7.12509C4.875 7.53831 5.21173 7.87505 5.62495 7.87505C6.03818 7.87505 6.37491 7.53831 6.37491 7.12509C6.37491 6.71173 6.03818 6.375 5.62495 6.375Z" fill="#A89060"/>
<path d="M8.4375 12.7501C8.127 12.7501 7.875 12.4981 7.875 12.1876V11.8125C7.875 11.2958 7.45422 10.875 6.93745 10.875H4.31255C3.79578 10.875 3.375 11.2958 3.375 11.8125V12.1876C3.375 12.4981 3.123 12.7501 2.8125 12.7501C2.502 12.7501 2.25 12.4981 2.25 12.1876V11.8125C2.25 10.6748 3.17477 9.75 4.31255 9.75H6.93745C8.07523 9.75 9 10.6748 9 11.8125V12.1876C9 12.4981 8.748 12.7501 8.4375 12.7501Z" fill="#A89060"/>
<path d="M15.1875 6.75H11.0625C10.752 6.75 10.5 6.498 10.5 6.1875C10.5 5.877 10.752 5.625 11.0625 5.625H15.1875C15.498 5.625 15.75 5.877 15.75 6.1875C15.75 6.498 15.498 6.75 15.1875 6.75Z" fill="#193554"/>
<path d="M15.1875 9.75H11.0625C10.752 9.75 10.5 9.498 10.5 9.1875C10.5 8.877 10.752 8.625 11.0625 8.625H15.1875C15.498 8.625 15.75 8.877 15.75 9.1875C15.75 9.498 15.498 9.75 15.1875 9.75Z" fill="#193554"/>
<path d="M15.1875 12.75H11.0625C10.752 12.75 10.5 12.498 10.5 12.1875C10.5 11.877 10.752 11.625 11.0625 11.625H15.1875C15.498 11.625 15.75 11.877 15.75 12.1875C15.75 12.498 15.498 12.75 15.1875 12.75Z" fill="#193554"/>
</g>
<defs>
<clipPath id="clip0">
<rect width="18" height="18" fill="white"/>
</clipPath>
</defs>
</svg>
