<svg width="14" height="10" viewBox="0 0 14 10" fill="none" xmlns="http://www.w3.org/2000/svg">
<path d="M0 5C0 5.55228 0.447715 6 1 6C1.55228 6 2 5.55228 2 5C2 4.44772 1.55228 4 1 4C0.447715 4 0 4.44772 0 5ZM0 9C0 9.55229 0.447715 10 1 10C1.55228 10 2 9.55229 2 9C2 8.44771 1.55228 8 1 8C0.447715 8 0 8.44771 0 9ZM0 1C0 1.55228 0.447715 2 1 2C1.55228 2 2 1.55228 2 1C2 0.447715 1.55228 0 1 0C0.447715 0 0 0.447715 0 1ZM4 5C4 5.55228 4.44772 6 5 6H13C13.5523 6 14 5.55228 14 5C14 4.44772 13.5523 4 13 4H5C4.44772 4 4 4.44772 4 5ZM4 9C4 9.55229 4.44772 10 5 10H13C13.5523 10 14 9.55229 14 9C14 8.44771 13.5523 8 13 8H5C4.44772 8 4 8.44771 4 9ZM5 0C4.44772 0 4 0.447715 4 1C4 1.55228 4.44772 2 5 2H13C13.5523 2 14 1.55228 14 1C14 0.447715 13.5523 0 13 0H5Z" fill="white"/>
</svg>
