<svg width="18" height="18" viewBox="0 0 18 18" fill="none" xmlns="http://www.w3.org/2000/svg">
<path d="M12.175 3.17676V1.05859H5.82493V3.17676H0.999999C0.447715 3.17676 0 3.62447 0 4.17676V15.9404C0 16.4927 0.447715 16.9404 1 16.9404H17C17.5523 16.9404 18 16.4927 18 15.9404V4.17676C18 3.62447 17.5523 3.17676 17 3.17676H12.175ZM6.87962 2.11328H11.1203V3.17676H6.87962V2.11328ZM1.05469 4.23145H16.9453V7.52949L10.5864 9.94964V8.47217H7.41357V9.94964L1.05469 7.52949V4.23145ZM9.53174 9.52686V11.8403L9.00004 12.0874L8.46826 11.8403V9.52686H9.53174ZM16.9453 15.8857H1.05469V8.65797L7.41357 11.0781V12.5132L9.00007 13.2505L10.5864 12.5132V11.0781L16.9453 8.65797V15.8857Z" fill="#193554"/>
<path fill-rule="evenodd" clip-rule="evenodd" d="M7.41357 9.94964V11.0781V12.5132L9.00007 13.2505L10.5864 12.5132V11.0781V9.94964V8.47217H7.41357V9.94964ZM9.53174 11.8403V9.52686H8.46826V11.8403L9.00004 12.0874L9.53174 11.8403Z" fill="#A89060"/>
</svg>
