<svg width="10" height="16" viewBox="0 0 10 16" fill="none" xmlns="http://www.w3.org/2000/svg">
<path d="M9.33666 11.8451C8.55989 11.5824 7.85109 11.2019 7.227 10.7374C7.0316 10.5869 6.76608 10.5604 6.5379 10.6733L5.12562 11.582C3.62677 10.125 2.4979 7.94857 2.23329 5.79704L3.81933 5.16522C4.04964 5.04607 4.18347 4.81686 4.18876 4.57233C4.19219 3.79231 4.32638 3.00022 4.5891 2.22344C4.70444 1.88242 4.51637 1.50212 4.17535 1.38678L1.99028 0.647734C1.64926 0.532392 1.18751 0.54512 1.02731 1.01876C-0.956995 6.88561 2.27572 13.4121 8.13625 15.3942C8.58463 15.5459 8.89603 15.2078 9.0135 14.8605L9.75041 12.6817C9.86575 12.3407 9.67768 11.9604 9.33666 11.8451Z" fill="#4A607A"/>
</svg>
