<svg width="18" height="18" viewBox="0 0 18 18" fill="none" xmlns="http://www.w3.org/2000/svg">
<g clip-path="url(#clip0)">
<path d="M14.4493 9.24124V7.55859C14.4493 5.10391 12.8176 3.0234 10.5821 2.34387V1.58203C10.5821 0.709699 9.87237 0 9.00004 0C8.12771 0 7.41801 0.709699 7.41801 1.58203V2.34387C5.18242 3.0234 3.55082 5.10388 3.55082 7.55859V9.24124C3.55082 11.3974 2.72894 13.442 1.23659 14.9983C1.09034 15.1508 1.04924 15.3758 1.13214 15.5702C1.21504 15.7645 1.40594 15.8906 1.61723 15.8906H6.41637C6.66134 17.0927 7.72672 18 9.00004 18C10.2734 18 11.3387 17.0927 11.5837 15.8906H16.3829C16.5941 15.8906 16.785 15.7645 16.8679 15.5702C16.9508 15.3758 16.9097 15.1508 16.7635 14.9983C15.2711 13.442 14.4493 11.3974 14.4493 9.24124ZM8.4727 1.58203C8.4727 1.29125 8.70926 1.05469 9.00004 1.05469C9.29082 1.05469 9.52738 1.29125 9.52738 1.58203V2.13497C9.35382 2.11823 9.17793 2.10938 9.00004 2.10938C8.82215 2.10938 8.64626 2.11823 8.4727 2.13497V1.58203ZM9.00004 16.9453C8.31256 16.9453 7.7264 16.5044 7.50871 15.8906H10.4914C10.2737 16.5044 9.68752 16.9453 9.00004 16.9453ZM2.75383 14.8359C3.9548 13.2261 4.60551 11.2778 4.60551 9.24124V7.55859C4.60551 5.13545 6.5769 3.16406 9.00004 3.16406C11.4232 3.16406 13.3946 5.13545 13.3946 7.55859V9.24124C13.3946 11.2778 14.0453 13.2261 15.2463 14.8359H2.75383Z" fill="#193554"/>
<path d="M15.8538 7.56031C15.8538 7.85154 16.0899 8.08765 16.3811 8.08765C16.6724 8.08765 16.9085 7.85154 16.9085 7.56031C16.9085 5.44742 16.0857 3.46098 14.5916 1.96695C14.3857 1.76104 14.0518 1.761 13.8459 1.96695C13.6399 2.17289 13.6399 2.50677 13.8459 2.71272C15.1407 4.00756 15.8538 5.72912 15.8538 7.56031Z" fill="#A89060"/>
<path d="M1.61719 8.08763C1.90842 8.08763 2.14453 7.85152 2.14453 7.56028C2.14453 5.72914 2.85764 4.00757 4.15245 2.71273C4.35839 2.50678 4.35839 2.1729 4.15245 1.96696C3.94654 1.76101 3.61262 1.76101 3.40668 1.96696C1.91264 3.46099 1.08984 5.44739 1.08984 7.56028C1.08984 7.85152 1.32595 8.08763 1.61719 8.08763Z" fill="#A89060"/>
</g>
<defs>
<clipPath id="clip0">
<rect width="18" height="18" fill="white"/>
</clipPath>
</defs>
</svg>
