<svg width="17" height="20" viewBox="0 0 17 20" fill="none" xmlns="http://www.w3.org/2000/svg">
<path d="M0.503849 10.4483C0.513871 10.7243 0.745706 10.9399 1.02167 10.9298C1.29763 10.9198 1.51321 10.688 1.50319 10.412L0.503849 10.4483ZM10.7519 2.96601L10.7304 3.46555L10.7411 3.46601H10.7519V2.96601ZM11.6534 1.06822L11.3307 1.45016L11.3307 1.45016L11.6534 1.06822ZM15.5142 4.32996L15.8369 3.94802V3.94802L15.5142 4.32996ZM15.5181 4.76543L15.8476 5.14151L15.8476 5.1415L15.5181 4.76543ZM11.6573 8.14797L11.3278 7.77189L11.3278 7.77189L11.6573 8.14797ZM5.236 7.2075C5.04144 7.40346 5.04257 7.72005 5.23853 7.91461C5.43449 8.10917 5.75107 8.10804 5.94563 7.91208L5.236 7.2075ZM10.6818 4.40187C10.6818 4.67801 10.9056 4.90187 11.1818 4.90187C11.4579 4.90187 11.6818 4.67801 11.6818 4.40187H10.6818ZM16.2654 9.55167C16.2554 9.27571 16.0235 9.06013 15.7476 9.07015C15.4716 9.08017 15.256 9.31201 15.266 9.58797L16.2654 9.55167ZM6.01737 17.034L6.03881 16.5345L6.02809 16.534H6.01737V17.034ZM5.11584 18.9318L5.43852 18.5498L5.11584 18.9318ZM1.25503 15.67L0.932351 16.052L0.932352 16.052L1.25503 15.67ZM1.25112 15.2346L0.921628 14.8585L0.921627 14.8585L1.25112 15.2346ZM5.11194 11.852L5.44143 12.2281L5.44143 12.2281L5.11194 11.852ZM11.5332 12.7925C11.7278 12.5965 11.7267 12.28 11.5307 12.0854C11.3347 11.8908 11.0182 11.892 10.8236 12.0879L11.5332 12.7925ZM6.08745 15.5981C6.08745 15.322 5.8636 15.0981 5.58745 15.0981C5.31131 15.0981 5.08745 15.322 5.08745 15.5981H6.08745ZM5.08109 8.77437C5.27622 8.57898 5.27602 8.2624 5.08063 8.06726C4.88525 7.87212 4.56866 7.87233 4.37353 8.06771L5.08109 8.77437ZM3.67947 9.12436C3.59225 9.38636 3.73394 9.66947 3.99594 9.75669C4.25795 9.84392 4.54105 9.70223 4.62828 9.44022L3.67947 9.12436ZM11.6881 11.2256C11.493 11.421 11.4932 11.7376 11.6886 11.9327C11.884 12.1279 12.2006 12.1277 12.3957 11.9323L11.6881 11.2256ZM13.0898 10.8756C13.177 10.6136 13.0353 10.3305 12.7733 10.2433C12.5113 10.1561 12.2282 10.2978 12.141 10.5598L13.0898 10.8756ZM1.50319 10.412C1.4593 9.20361 1.85811 7.38669 3.20025 5.91954C4.52676 4.46949 6.83299 3.2983 10.7304 3.46555L10.7733 2.46647C6.64269 2.28921 4.02696 3.53431 2.46241 5.24457C0.913502 6.93774 0.452163 9.02515 0.503849 10.4483L1.50319 10.412ZM10.7519 3.46601H11.1818V2.46601H10.7519V3.46601ZM11.6818 2.96601V1.28763H10.6818V2.96601H11.6818ZM11.3307 1.45016L15.1915 4.7119L15.8369 3.94802L11.9761 0.686277L11.3307 1.45016ZM15.1886 4.38935L11.3278 7.77189L11.9868 8.52405L15.8476 5.14151L15.1886 4.38935ZM11.6818 7.93192V6.555H10.6818V7.93192H11.6818ZM10.8951 5.76792H8.43741V6.76792H10.8951V5.76792ZM8.43741 5.76792C7.57437 5.76792 6.92023 5.96816 6.39738 6.26302C5.8843 6.55237 5.51874 6.92273 5.236 7.2075L5.94563 7.91208C6.23296 7.62268 6.51083 7.3471 6.8886 7.13406C7.25659 6.92653 7.74071 6.76792 8.43741 6.76792V5.76792ZM10.6818 2.96601V4.40187H11.6818V2.96601H10.6818ZM11.6818 6.555C11.6818 6.12091 11.3302 5.76792 10.8951 5.76792V6.76792C10.7767 6.76792 10.6818 6.67199 10.6818 6.555H11.6818ZM11.3278 7.77189C11.4666 7.65027 11.6818 7.75013 11.6818 7.93192H10.6818C10.6818 8.607 11.4772 8.97051 11.9868 8.52405L11.3278 7.77189ZM15.1915 4.7119C15.092 4.62784 15.0907 4.47516 15.1886 4.38935L15.8476 5.1415C16.2098 4.8242 16.2047 4.25877 15.8369 3.94802L15.1915 4.7119ZM11.6818 1.28763C11.6818 1.46764 11.4703 1.56809 11.3307 1.45016L11.9761 0.686278C11.4636 0.253364 10.6818 0.619188 10.6818 1.28763H11.6818ZM15.266 9.58797C15.3099 10.7964 14.9111 12.6133 13.569 14.0805C12.2425 15.5305 9.93624 16.7017 6.03881 16.5345L5.99593 17.5335C10.1265 17.7108 12.7423 16.4657 14.3068 14.7554C15.8557 13.0623 16.3171 10.9749 16.2654 9.55167L15.266 9.58797ZM6.01737 16.534H5.58745V17.534H6.01737V16.534ZM5.08745 17.034V18.7124H6.08745V17.034H5.08745ZM5.43852 18.5498L1.5777 15.2881L0.932352 16.052L4.79317 19.3137L5.43852 18.5498ZM1.58061 15.6107L5.44143 12.2281L4.78245 11.4759L0.921628 14.8585L1.58061 15.6107ZM5.08745 12.0681V13.445H6.08745V12.0681H5.08745ZM5.87417 14.2321H8.33182V13.2321H5.87417V14.2321ZM8.33182 14.2321C9.19486 14.2321 9.849 14.0318 10.3719 13.737C10.8849 13.4476 11.2505 13.0773 11.5332 12.7925L10.8236 12.0879C10.5363 12.3773 10.2584 12.6529 9.88063 12.8659C9.51264 13.0735 9.02852 13.2321 8.33182 13.2321V14.2321ZM6.08745 17.034V15.5981H5.08745V17.034H6.08745ZM5.08745 13.445C5.08745 13.8791 5.43908 14.2321 5.87417 14.2321V13.2321C5.99257 13.2321 6.08745 13.328 6.08745 13.445H5.08745ZM5.44143 12.2281C5.30261 12.3497 5.08745 12.2499 5.08745 12.0681H6.08745C6.08745 11.393 5.29203 11.0295 4.78244 11.476L5.44143 12.2281ZM1.57771 15.2881C1.6772 15.3722 1.67856 15.5248 1.58061 15.6107L0.921627 14.8585C0.559461 15.1758 0.564517 15.7412 0.932351 16.052L1.57771 15.2881ZM5.08745 18.7124C5.08745 18.5324 5.29893 18.4319 5.43852 18.5498L4.79317 19.3137C5.30559 19.7466 6.08745 19.3808 6.08745 18.7124H5.08745ZM4.37353 8.06771C4.22704 8.21439 3.86305 8.57293 3.67947 9.12436L4.62828 9.44022C4.73142 9.1304 4.94086 8.91477 5.08109 8.77437L4.37353 8.06771ZM12.3957 11.9323C12.5422 11.7856 12.9062 11.4271 13.0898 10.8756L12.141 10.5598C12.0378 10.8696 11.8284 11.0852 11.6881 11.2256L12.3957 11.9323Z" fill="#193554"/>
</svg>
