<svg width="18" height="14" viewBox="0 0 18 14" fill="none" xmlns="http://www.w3.org/2000/svg">
<path d="M6.69696 13.8555L12.6234 4.36328H9.32749L11.4369 0.144531H7.50035L5.74219 7.52734H8.32586L6.69696 13.8555Z" fill="#D82525"/>
<path d="M3.37894 8.52648L3.1956 7.48828L0 8.03777L0.18334 9.07597L3.37894 8.52648Z" fill="#193554"/>
<path d="M14.6211 5.47527L14.8044 6.51347L18 5.96398L17.8167 4.92578L14.6211 5.47527Z" fill="#193554"/>
<path d="M3.71287 9.44531L0.9375 11.0273L1.46484 11.9409L4.24022 10.3589L3.71287 9.44531Z" fill="#193554"/>
<path d="M17.0644 2.97607L16.5371 2.0625L13.7617 3.64453L14.2891 4.5581L17.0644 2.97607Z" fill="#193554"/>
<path d="M4.24022 3.64453L1.46484 2.0625L0.9375 2.97607L3.71287 4.5581L4.24022 3.64453Z" fill="#193554"/>
<path d="M17.0644 11.0273L14.2891 9.44531L13.7617 10.3589L16.5371 11.9409L17.0644 11.0273Z" fill="#193554"/>
<path d="M3.37894 5.47527L0.18334 4.92578L0 5.96398L3.1956 6.51347L3.37894 5.47527Z" fill="#193554"/>
<path d="M14.6206 8.52648L17.8162 9.07597L17.9995 8.03777L14.8039 7.48828L14.6206 8.52648Z" fill="#193554"/>
</svg>
