<svg width="17" height="16" viewBox="0 0 17 16" fill="none" xmlns="http://www.w3.org/2000/svg">
<path d="M14.9609 15.3125C15.2778 15.3121 15.5817 15.1861 15.8058 14.962C16.0298 14.7379 16.1559 14.4341 16.1562 14.1172V1.88281C16.1559 1.5659 16.0298 1.26208 15.8058 1.03799C15.5817 0.813902 15.2778 0.687854 14.9609 0.6875H7.78906C7.47215 0.687854 7.16833 0.813902 6.94424 1.03799C6.72015 1.26208 6.5941 1.5659 6.59375 1.88281V8.5625H0.757812C0.59004 8.5627 0.429195 8.62943 0.310562 8.74806C0.191929 8.8667 0.125195 9.02754 0.125 9.19531V14.6797C0.125195 14.8475 0.191929 15.0083 0.310562 15.1269C0.429195 15.2456 0.59004 15.3123 0.757812 15.3125H14.9609ZM6.875 14.75V14.1875H9.125C9.19959 14.1875 9.27113 14.1579 9.32387 14.1051C9.37662 14.0524 9.40625 13.9808 9.40625 13.9062C9.40643 13.7571 9.46575 13.6141 9.5712 13.5087C9.67665 13.4032 9.81962 13.3439 9.96875 13.3438C10.0433 13.3438 10.1149 13.3141 10.1676 13.2614C10.2204 13.2086 10.25 13.1371 10.25 13.0625V10.8125C10.25 10.7379 10.2204 10.6664 10.1676 10.6136C10.1149 10.5609 10.0433 10.5312 9.96875 10.5312C9.81962 10.5311 9.67666 10.4717 9.57121 10.3663C9.46576 10.2608 9.40644 10.1179 9.40625 9.96875C9.40625 9.89416 9.37662 9.82262 9.32387 9.76988C9.27113 9.71713 9.19959 9.6875 9.125 9.6875H6.875V9.125H10.7422C10.7608 9.125 10.7787 9.13241 10.7919 9.14559C10.8051 9.15878 10.8125 9.17666 10.8125 9.19531V14.6797C10.8125 14.6983 10.8051 14.7162 10.7919 14.7294C10.7787 14.7426 10.7608 14.75 10.7422 14.75H6.875ZM6.875 13.1969V10.6806C7.0514 10.8392 7.1926 11.0329 7.28949 11.2494C7.38637 11.4659 7.4368 11.7003 7.4375 11.9375C7.43849 12.1753 7.38884 12.4106 7.29186 12.6278C7.19487 12.8449 7.05277 13.0389 6.875 13.1969ZM8 11.9375C7.99904 11.6183 7.93054 11.3029 7.799 11.0121C7.66746 10.7212 7.47586 10.4615 7.23679 10.25H8.87936C8.92999 10.4444 9.03157 10.6218 9.17363 10.7639C9.31569 10.9059 9.49308 11.0075 9.6875 11.0581V12.8169C9.49308 12.8675 9.31569 12.9691 9.17362 13.1111C9.03156 13.2532 8.92998 13.4306 8.87936 13.625H7.24038C7.48024 13.4143 7.67215 13.1547 7.80319 12.8636C7.93423 12.5725 8.00134 12.2567 8 11.9375ZM8.28125 8C8.28125 7.88875 8.31424 7.77999 8.37605 7.68749C8.43786 7.59499 8.52571 7.52289 8.62849 7.48032C8.73127 7.43774 8.84437 7.4266 8.95349 7.44831C9.0626 7.47001 9.16283 7.52359 9.2415 7.60225C9.32016 7.68092 9.37374 7.78115 9.39544 7.89026C9.41715 7.99938 9.40601 8.11248 9.36343 8.21526C9.32086 8.31804 9.24876 8.40589 9.15626 8.4677C9.06376 8.52951 8.955 8.5625 8.84375 8.5625C8.69462 8.56232 8.55165 8.503 8.4462 8.39755C8.34075 8.2921 8.28143 8.14913 8.28125 8ZM10.8125 8C10.8125 7.88875 10.8455 7.77999 10.9073 7.68749C10.9691 7.59499 11.057 7.52289 11.1597 7.48032C11.2625 7.43774 11.3756 7.4266 11.4847 7.44831C11.5939 7.47001 11.6941 7.52359 11.7727 7.60225C11.8514 7.68092 11.905 7.78115 11.9267 7.89026C11.9484 7.99938 11.9373 8.11248 11.8947 8.21526C11.8521 8.31804 11.78 8.40589 11.6875 8.4677C11.595 8.52951 11.4863 8.5625 11.375 8.5625C11.2259 8.56232 11.0829 8.503 10.9774 8.39755C10.872 8.2921 10.8127 8.14913 10.8125 8ZM11.375 12.5C11.5242 12.5 11.6673 12.5593 11.7727 12.6648C11.8782 12.7702 11.9375 12.9133 11.9375 13.0625C11.9375 13.2117 11.8782 13.3548 11.7727 13.4602C11.6673 13.5657 11.5242 13.625 11.375 13.625V12.5ZM11.375 9.96875C11.5242 9.96875 11.6673 10.028 11.7727 10.1335C11.8782 10.239 11.9375 10.3821 11.9375 10.5312C11.9375 10.6804 11.8782 10.8235 11.7727 10.929C11.6673 11.0345 11.5242 11.0938 11.375 11.0938V9.96875ZM7.15625 1.88281C7.15645 1.71504 7.22318 1.5542 7.34181 1.43556C7.46045 1.31693 7.62129 1.2502 7.78906 1.25H14.9609C15.1287 1.2502 15.2896 1.31693 15.4082 1.43556C15.5268 1.5542 15.5936 1.71504 15.5938 1.88281V14.1172C15.5936 14.285 15.5268 14.4458 15.4082 14.5644C15.2896 14.6831 15.1287 14.7498 14.9609 14.75H11.3709C11.3735 14.7267 11.3749 14.7032 11.375 14.6797V14.1875C11.6734 14.1875 11.9595 14.069 12.1705 13.858C12.3815 13.647 12.5 13.3609 12.5 13.0625C12.5 12.7641 12.3815 12.478 12.1705 12.267C11.9595 12.056 11.6734 11.9375 11.375 11.9375V11.6562C11.6734 11.6562 11.9595 11.5377 12.1705 11.3267C12.3815 11.1158 12.5 10.8296 12.5 10.5312C12.5 10.2329 12.3815 9.94673 12.1705 9.73575C11.9595 9.52478 11.6734 9.40625 11.375 9.40625V9.19531C11.3749 9.17182 11.3735 9.14834 11.3709 9.125H11.375C11.6231 9.12533 11.8643 9.04375 12.0613 8.89294C12.2583 8.74213 12.3999 8.53052 12.4643 8.29094C12.5287 8.05137 12.5123 7.79724 12.4174 7.568C12.3226 7.33876 12.1548 7.14722 11.94 7.02312C11.7252 6.89903 11.4754 6.84931 11.2295 6.88168C10.9835 6.91406 10.7551 7.02672 10.5798 7.20218C10.4044 7.37763 10.2918 7.60608 10.2596 7.85205C10.2273 8.09801 10.2771 8.34775 10.4013 8.5625H9.81758C9.91656 8.3915 9.96876 8.19744 9.96892 7.99986C9.96909 7.80227 9.91721 7.60813 9.81852 7.43696C9.71982 7.26579 9.57778 7.12363 9.4067 7.02479C9.23561 6.92595 9.04151 6.87392 8.84393 6.87392C8.64634 6.87392 8.45224 6.92595 8.28115 7.02479C8.11007 7.12363 7.96803 7.26579 7.86933 7.43696C7.77064 7.60813 7.71876 7.80227 7.71893 7.99986C7.71909 8.19744 7.77129 8.3915 7.87027 8.5625H7.15625V1.88281ZM4.625 10.6806V13.1957C4.44804 13.0375 4.30646 12.8437 4.20953 12.627C4.1126 12.4103 4.0625 12.1756 4.0625 11.9382C4.0625 11.7008 4.1126 11.4661 4.20953 11.2494C4.30646 11.0327 4.44804 10.8389 4.625 10.6806ZM3.5 11.9375C3.49971 12.2567 3.56746 12.5723 3.69874 12.8633C3.83002 13.1543 4.02182 13.414 4.26134 13.625H2.62064C2.57002 13.4306 2.46843 13.2532 2.32637 13.1111C2.18431 12.9691 2.00692 12.8675 1.8125 12.8169V11.0581C2.00692 11.0075 2.18431 10.9059 2.32637 10.7639C2.46843 10.6218 2.57002 10.4444 2.62064 10.25H4.26321C4.02414 10.4615 3.83254 10.7212 3.701 11.0121C3.56946 11.3029 3.50096 11.6183 3.5 11.9375ZM0.6875 14.6797V9.19531C0.6875 9.17666 0.694908 9.15878 0.708094 9.14559C0.72128 9.13241 0.739164 9.125 0.757812 9.125H4.625V9.6875H2.375C2.30041 9.6875 2.22887 9.71713 2.17613 9.76988C2.12338 9.82262 2.09375 9.89416 2.09375 9.96875C2.09357 10.1179 2.03425 10.2609 1.9288 10.3663C1.82335 10.4718 1.68038 10.5311 1.53125 10.5312C1.45666 10.5312 1.38512 10.5609 1.33238 10.6136C1.27963 10.6664 1.25 10.7379 1.25 10.8125V13.0625C1.25 13.1371 1.27963 13.2086 1.33238 13.2614C1.38512 13.3141 1.45666 13.3438 1.53125 13.3438C1.68038 13.3439 1.82335 13.4032 1.9288 13.5087C2.03425 13.6141 2.09357 13.7571 2.09375 13.9062C2.09375 13.9808 2.12338 14.0524 2.17613 14.1051C2.22887 14.1579 2.30041 14.1875 2.375 14.1875H4.625V14.75H0.757812C0.739164 14.75 0.72128 14.7426 0.708094 14.7294C0.694908 14.7162 0.6875 14.6983 0.6875 14.6797ZM5.1875 14.75V9.125H6.3125V14.75H5.1875Z" fill="#193554"/>
<path d="M8 6.3125H14.75C14.8246 6.3125 14.8961 6.28287 14.9489 6.23012C15.0016 6.17738 15.0312 6.10584 15.0312 6.03125V2.09375C15.0312 2.01916 15.0016 1.94762 14.9489 1.89488C14.8961 1.84213 14.8246 1.8125 14.75 1.8125H8C7.92541 1.8125 7.85387 1.84213 7.80113 1.89488C7.74838 1.94762 7.71875 2.01916 7.71875 2.09375V6.03125C7.71875 6.10584 7.74838 6.17738 7.80113 6.23012C7.85387 6.28287 7.92541 6.3125 8 6.3125ZM8.28125 2.375H14.4688V5.75H8.28125V2.375Z" fill="#193554"/>
<path d="M13.9063 6.875C13.6838 6.875 13.4662 6.94098 13.2812 7.0646C13.0962 7.18822 12.952 7.36392 12.8669 7.56949C12.7817 7.77505 12.7595 8.00126 12.8029 8.21949C12.8463 8.43772 12.9534 8.63817 13.1108 8.79551C13.2681 8.95284 13.4685 9.05999 13.6868 9.1034C13.905 9.14681 14.1312 9.12453 14.3368 9.03938C14.5423 8.95423 14.7181 8.81003 14.8417 8.62503C14.9653 8.44002 15.0313 8.22251 15.0313 8.00001C15.0309 7.70174 14.9123 7.41578 14.7014 7.20488C14.4905 6.99397 14.2045 6.87533 13.9063 6.875ZM13.9063 8.56251C13.795 8.56251 13.6863 8.52952 13.5937 8.46771C13.5012 8.4059 13.4291 8.31805 13.3866 8.21527C13.344 8.11248 13.3329 7.99938 13.3546 7.89027C13.3763 7.78115 13.4298 7.68092 13.5085 7.60226C13.5872 7.52359 13.6874 7.47002 13.7965 7.44831C13.9056 7.42661 14.0187 7.43775 14.1215 7.48032C14.2243 7.5229 14.3122 7.59499 14.374 7.6875C14.4358 7.78 14.4688 7.88875 14.4688 8.00001C14.4686 8.14914 14.4093 8.29211 14.3038 8.39756C14.1984 8.50301 14.0554 8.56233 13.9063 8.56251Z" fill="#193554"/>
<path d="M13.9063 9.40625C13.6838 9.40625 13.4662 9.47223 13.2812 9.59585C13.0962 9.71947 12.952 9.89517 12.8669 10.1007C12.7817 10.3063 12.7595 10.5325 12.8029 10.7507C12.8463 10.969 12.9534 11.1694 13.1108 11.3268C13.2681 11.4841 13.4685 11.5912 13.6868 11.6346C13.905 11.6781 14.1312 11.6558 14.3368 11.5706C14.5423 11.4855 14.7181 11.3413 14.8417 11.1563C14.9653 10.9713 15.0313 10.7538 15.0313 10.5313C15.0309 10.233 14.9123 9.94703 14.7014 9.73613C14.4905 9.52522 14.2045 9.40658 13.9063 9.40625ZM13.9063 11.0938C13.795 11.0938 13.6863 11.0608 13.5937 10.999C13.5012 10.9372 13.4291 10.8493 13.3866 10.7465C13.344 10.6437 13.3329 10.5306 13.3546 10.4215C13.3763 10.3124 13.4298 10.2122 13.5085 10.1335C13.5872 10.0548 13.6874 10.0013 13.7965 9.97956C13.9056 9.95786 14.0187 9.969 14.1215 10.0116C14.2243 10.0541 14.3122 10.1262 14.374 10.2187C14.4358 10.3113 14.4688 10.42 14.4688 10.5313C14.4686 10.6804 14.4093 10.8234 14.3038 10.9288C14.1984 11.0343 14.0554 11.0936 13.9063 11.0938Z" fill="#193554"/>
<path d="M13.9063 11.9375C13.6838 11.9375 13.4662 12.0035 13.2812 12.1271C13.0962 12.2507 12.952 12.4264 12.8669 12.632C12.7817 12.8376 12.7595 13.0638 12.8029 13.282C12.8463 13.5002 12.9534 13.7007 13.1108 13.858C13.2681 14.0153 13.4685 14.1225 13.6868 14.1659C13.905 14.2093 14.1312 14.187 14.3368 14.1019C14.5423 14.0167 14.7181 13.8725 14.8417 13.6875C14.9653 13.5025 15.0313 13.285 15.0313 13.0625C15.0309 12.7642 14.9123 12.4783 14.7014 12.2674C14.4905 12.0565 14.2045 11.9378 13.9063 11.9375ZM13.9063 13.625C13.795 13.625 13.6863 13.592 13.5937 13.5302C13.5012 13.4684 13.4291 13.3806 13.3866 13.2778C13.344 13.175 13.3329 13.0619 13.3546 12.9528C13.3763 12.8437 13.4298 12.7434 13.5085 12.6648C13.5872 12.5861 13.6874 12.5325 13.7965 12.5108C13.9056 12.4891 14.0187 12.5002 14.1215 12.5428C14.2243 12.5854 14.3122 12.6575 14.374 12.75C14.4358 12.8425 14.4688 12.9513 14.4688 13.0625C14.4686 13.2116 14.4093 13.3546 14.3038 13.4601C14.1984 13.5655 14.0554 13.6248 13.9063 13.625Z" fill="#193554"/>
<path d="M12.6989 3.01988C12.6728 2.99376 12.6418 2.97305 12.6076 2.95891C12.5735 2.94478 12.5369 2.9375 12.5 2.9375C12.4631 2.9375 12.4265 2.94478 12.3924 2.95891C12.3583 2.97305 12.3272 2.99376 12.3011 3.01988L10.6136 4.70738C10.5875 4.7335 10.5668 4.7645 10.5527 4.79863C10.5385 4.83275 10.5312 4.86932 10.5312 4.90626C10.5313 4.9432 10.5385 4.97977 10.5527 5.01389C10.5668 5.04802 10.5875 5.07902 10.6136 5.10514C10.6397 5.13126 10.6708 5.15197 10.7049 5.16611C10.739 5.18024 10.7756 5.18752 10.8125 5.18752C10.8494 5.18752 10.886 5.18024 10.9201 5.16611C10.9543 5.15197 10.9853 5.13126 11.0114 5.10514L12.6989 3.41764C12.725 3.39152 12.7457 3.36052 12.7599 3.32639C12.774 3.29227 12.7813 3.2557 12.7813 3.21876C12.7813 3.18182 12.774 3.14525 12.7599 3.11113C12.7457 3.077 12.725 3.046 12.6989 3.01988Z" fill="#A89060"/>
<path d="M10.7422 3.92188C11.014 3.92188 11.2344 3.70152 11.2344 3.42969C11.2344 3.15786 11.014 2.9375 10.7422 2.9375C10.4704 2.9375 10.25 3.15786 10.25 3.42969C10.25 3.70152 10.4704 3.92188 10.7422 3.92188Z" fill="#A89060"/>
<path d="M12.5703 5.1875C12.8421 5.1875 13.0625 4.96714 13.0625 4.69531C13.0625 4.42348 12.8421 4.20312 12.5703 4.20312C12.2985 4.20312 12.0781 4.42348 12.0781 4.69531C12.0781 4.96714 12.2985 5.1875 12.5703 5.1875Z" fill="#A89060"/>
<path d="M2.65625 12.2188C2.81158 12.2188 2.9375 12.0928 2.9375 11.9375C2.9375 11.7822 2.81158 11.6562 2.65625 11.6562C2.50092 11.6562 2.375 11.7822 2.375 11.9375C2.375 12.0928 2.50092 12.2188 2.65625 12.2188Z" fill="#193554"/>
<path d="M8.84375 12.1484C8.99908 12.1484 9.125 12.0225 9.125 11.8672C9.125 11.7119 8.99908 11.5859 8.84375 11.5859C8.68842 11.5859 8.5625 11.7119 8.5625 11.8672C8.5625 12.0225 8.68842 12.1484 8.84375 12.1484Z" fill="#193554"/>
</svg>
