<svg width="18" height="18" viewBox="0 0 18 18" fill="none" xmlns="http://www.w3.org/2000/svg">
<g clip-path="url(#clip0)">
<path d="M15.375 18H6.375C5.3415 18 4.5 17.1593 4.5 16.125V4.875C4.5 3.84075 5.3415 3 6.375 3H15.375C16.4085 3 17.25 3.84075 17.25 4.875V16.125C17.25 17.1593 16.4085 18 15.375 18ZM6.375 3.75C5.75475 3.75 5.25 4.25475 5.25 4.875V16.125C5.25 16.7453 5.75475 17.25 6.375 17.25H15.375C15.9952 17.25 16.5 16.7453 16.5 16.125V4.875C16.5 4.25475 15.9952 3.75 15.375 3.75H6.375Z" fill="#193554"/>
<path d="M3.37549 15.75H2.62549C1.59199 15.75 0.750488 14.9093 0.750488 13.875V1.875C0.750488 0.84075 1.59199 0 2.62549 0H11.6255C12.659 0 13.5005 0.84075 13.5005 1.875C13.5005 2.082 13.3325 2.25 13.1255 2.25C12.9185 2.25 12.7505 2.082 12.7505 1.875C12.7505 1.25475 12.2457 0.75 11.6255 0.75H2.62549C2.00524 0.75 1.50049 1.25475 1.50049 1.875V13.875C1.50049 14.4952 2.00524 15 2.62549 15H3.37549C3.58249 15 3.75049 15.168 3.75049 15.375C3.75049 15.582 3.58249 15.75 3.37549 15.75Z" fill="#A89060"/>
<path d="M13.8755 12.75H7.87549C7.66849 12.75 7.50049 12.582 7.50049 12.375C7.50049 12.168 7.66849 12 7.87549 12H13.8755C14.0825 12 14.2505 12.168 14.2505 12.375C14.2505 12.582 14.0825 12.75 13.8755 12.75Z" fill="#193554"/>
<path d="M13.8755 15.75H7.87549C7.66849 15.75 7.50049 15.582 7.50049 15.375C7.50049 15.168 7.66849 15 7.87549 15H13.8755C14.0825 15 14.2505 15.168 14.2505 15.375C14.2505 15.582 14.0825 15.75 13.8755 15.75Z" fill="#193554"/>
<path d="M13.8755 9.75H7.87549C7.66849 9.75 7.50049 9.582 7.50049 9.375C7.50049 9.168 7.66849 9 7.87549 9H13.8755C14.0825 9 14.2505 9.168 14.2505 9.375C14.2505 9.582 14.0825 9.75 13.8755 9.75Z" fill="#193554"/>
<path d="M13.8755 6.75H7.87549C7.66849 6.75 7.50049 6.582 7.50049 6.375C7.50049 6.168 7.66849 6 7.87549 6H13.8755C14.0825 6 14.2505 6.168 14.2505 6.375C14.2505 6.582 14.0825 6.75 13.8755 6.75Z" fill="#193554"/>
</g>
<defs>
<clipPath id="clip0">
<rect width="18" height="18" fill="white"/>
</clipPath>
</defs>
</svg>
