<svg width="18" height="18" viewBox="0 0 18 18" fill="none" xmlns="http://www.w3.org/2000/svg">
<path d="M14.625 18H3.375C2.3415 18 1.5 17.1585 1.5 16.125V1.875C1.5 0.8415 2.3415 0 3.375 0H14.625C15.6585 0 16.5 0.8415 16.5 1.875V16.125C16.5 17.1585 15.6585 18 14.625 18ZM3.375 0.75C2.75475 0.75 2.25 1.25475 2.25 1.875V16.125C2.25 16.7453 2.75475 17.25 3.375 17.25H14.625C15.2452 17.25 15.75 16.7453 15.75 16.125V1.875C15.75 1.25475 15.2452 0.75 14.625 0.75H3.375Z" fill="#193554"/>
<path d="M13.875 8.99999H12.375C12.168 8.99999 12 8.83199 12 8.625C12 8.418 12.168 8.25 12.375 8.25H13.875C14.082 8.25 14.25 8.418 14.25 8.625C14.25 8.83199 14.082 8.99999 13.875 8.99999Z" fill="#193554"/>
<path d="M13.875 6.75001H12.375C12.168 6.75001 12 6.582 12 6.375C12 6.168 12.168 6 12.375 6H13.875C14.082 6 14.25 6.168 14.25 6.375C14.25 6.582 14.082 6.75001 13.875 6.75001Z" fill="#193554"/>
<path d="M13.875 11.25H12.375C12.168 11.25 12 11.082 12 10.875C12 10.668 12.168 10.5 12.375 10.5H13.875C14.082 10.5 14.25 10.668 14.25 10.875C14.25 11.082 14.082 11.25 13.875 11.25Z" fill="#193554"/>
<path d="M13.875 13.5H12.375C12.168 13.5 12 13.332 12 13.125C12 12.918 12.168 12.75 12.375 12.75H13.875C14.082 12.75 14.25 12.918 14.25 13.125C14.25 13.332 14.082 13.5 13.875 13.5Z" fill="#193554"/>
<path d="M13.875 15.75H4.125C3.918 15.75 3.75 15.582 3.75 15.375C3.75 15.168 3.918 15 4.125 15H13.875C14.082 15 14.25 15.168 14.25 15.375C14.25 15.582 14.082 15.75 13.875 15.75Z" fill="#193554"/>
<path d="M7.5 13.5C5.43225 13.5 3.75 11.8177 3.75 9.75C3.75 7.68225 5.43225 6 7.5 6C9.56775 6 11.25 7.68225 11.25 9.75C11.25 11.8177 9.56775 13.5 7.5 13.5ZM7.5 6.75C5.8455 6.75 4.5 8.0955 4.5 9.75C4.5 11.4045 5.8455 12.75 7.5 12.75C9.1545 12.75 10.5 11.4045 10.5 9.75C10.5 8.0955 9.1545 6.75 7.5 6.75Z" fill="#A89060"/>
<path d="M5.11347 12.5115C5.01747 12.5115 4.92147 12.4747 4.84797 12.402C4.70172 12.2557 4.70172 12.018 4.84797 11.8717L7.12497 9.59474V6.375C7.12497 6.168 7.29297 6 7.49997 6C7.70697 6 7.87497 6.168 7.87497 6.375V9.74999C7.87497 9.84974 7.83522 9.94499 7.76547 10.0155L5.37897 12.402C5.30547 12.4747 5.20947 12.5115 5.11347 12.5115Z" fill="#A89060"/>
</svg>
