<svg width="18" height="14" viewBox="0 0 18 14" fill="none" xmlns="http://www.w3.org/2000/svg">
<path d="M17.4727 0.118164H0.527344C0.236109 0.118164 0 0.354273 0 0.645508V3.82275C0 4.11399 0.236109 4.3501 0.527344 4.3501H1.05908V13.3545C1.05908 13.6457 1.29519 13.8818 1.58643 13.8818H16.4136C16.7048 13.8818 16.9409 13.6457 16.9409 13.3545V4.3501H17.4727C17.7639 4.3501 18 4.11399 18 3.82275V0.645508C18 0.354273 17.7639 0.118164 17.4727 0.118164ZM15.8862 12.8271H2.11377V4.3501H15.8862V12.8271ZM16.9453 3.29541H1.05469V1.17285H16.9453V3.29541Z" fill="#193554"/>
<path d="M7.94189 8.58789H10.0601C10.9348 8.58789 11.6465 7.87622 11.6465 7.00146C11.6465 6.12671 10.9348 5.41504 10.0601 5.41504H7.94189C7.06714 5.41504 6.35547 6.12671 6.35547 7.00146C6.35547 7.87622 7.06714 8.58789 7.94189 8.58789ZM7.94189 6.46973H10.0601C10.3533 6.46973 10.5918 6.70826 10.5918 7.00146C10.5918 7.29467 10.3533 7.5332 10.0601 7.5332H7.94189C7.64869 7.5332 7.41016 7.29467 7.41016 7.00146C7.41016 6.70826 7.64869 6.46973 7.94189 6.46973Z" fill="#A89060"/>
</svg>
