<svg width="62" height="62" viewBox="0 0 62 62" fill="none" xmlns="http://www.w3.org/2000/svg">
<circle cx="31" cy="31" r="31" fill="white"/>
<path d="M44.9496 21.4187C44.9496 19.0977 42.9017 17.0498 40.5807 17.0498H22.9685C20.6475 17.0498 18.5996 19.0977 18.5996 21.4187V39.0309C18.5996 41.3519 20.6475 43.3998 22.9685 43.3998H31.8429V33.4332H28.5662V29.0643H31.8429V27.2894C31.8429 24.2858 34.0273 21.6918 36.7579 21.6918H40.3076V26.0607H36.7579C36.3483 26.0607 35.9387 26.4703 35.9387 27.2894V29.0643H40.3076V33.4332H35.9387V43.3998H40.5807C42.9017 43.3998 44.9496 41.3519 44.9496 39.0309V21.4187Z" fill="#A89060"/>
</svg>
