<svg width="62" height="62" viewBox="0 0 62 62" fill="none" xmlns="http://www.w3.org/2000/svg">
<circle cx="31" cy="31" r="31" fill="white"/>
<path d="M41.1998 18.5996H22.3494C20.2211 18.5996 18.5996 20.2211 18.5996 22.3494V41.1998C18.5996 43.3281 20.2211 44.9496 22.3494 44.9496H41.1998C43.3281 44.9496 44.9496 43.3281 44.9496 41.1998V22.3494C44.9496 20.2211 43.3281 18.5996 41.1998 18.5996ZM31.7746 39.6796C36.1325 39.6796 39.6796 36.2338 39.6796 32.0786C39.6796 31.3692 39.5783 30.5585 39.3756 29.9504H41.6052V40.6931C41.6052 41.1998 41.1998 41.7065 40.5917 41.7065H22.9575C22.4508 41.7065 21.944 41.3011 21.944 40.6931V29.849H24.275C24.0723 30.5585 23.971 31.2679 23.971 31.9773C23.8696 36.2338 27.4167 39.6796 31.7746 39.6796ZM31.7746 36.6392C28.9369 36.6392 26.7073 34.4096 26.7073 31.6733C26.7073 28.9369 28.9369 26.7073 31.7746 26.7073C34.6123 26.7073 36.8419 28.9369 36.8419 31.6733C36.8419 34.511 34.6123 36.6392 31.7746 36.6392ZM41.5038 25.7952C41.5038 26.4033 40.9971 26.91 40.389 26.91H37.5513C36.9433 26.91 36.4365 26.4033 36.4365 25.7952V23.0588C36.4365 22.4508 36.9433 21.944 37.5513 21.944H40.389C40.9971 21.944 41.5038 22.4508 41.5038 23.0588V25.7952Z" fill="#A89060"/>
</svg>
