<svg width="30" height="30" viewBox="0 0 30 30" fill="none" xmlns="http://www.w3.org/2000/svg">
<path d="M15.0007 0.833008C7.18065 0.833008 0.833984 7.17967 0.833984 14.9997C0.833984 22.8197 7.18065 29.1663 15.0007 29.1663C22.8207 29.1663 29.1673 22.8197 29.1673 14.9997C29.1673 7.17967 22.8207 0.833008 15.0007 0.833008ZM15.0007 5.08301C17.3523 5.08301 19.2507 6.98134 19.2507 9.33301C19.2507 11.6847 17.3523 13.583 15.0007 13.583C12.649 13.583 10.7507 11.6847 10.7507 9.33301C10.7507 6.98134 12.649 5.08301 15.0007 5.08301ZM15.0007 25.1997C11.459 25.1997 8.32815 23.3863 6.50065 20.638C6.54315 17.8188 12.1673 16.2747 15.0007 16.2747C17.8198 16.2747 23.4582 17.8188 23.5007 20.638C21.6732 23.3863 18.5423 25.1997 15.0007 25.1997Z" fill="#323232"/>
</svg>
