<svg width="62" height="62" viewBox="0 0 62 62" fill="none" xmlns="http://www.w3.org/2000/svg">
<circle cx="31" cy="31" r="31" fill="white"/>
<path d="M14.4938 31.5794L21.6208 34.237L24.3992 43.1759C24.5199 43.7799 25.2447 43.9007 25.7279 43.5383L29.7142 40.2768C30.0766 39.9144 30.6806 39.9144 31.1638 40.2768L38.2908 45.4711C38.774 45.8335 39.4988 45.5919 39.6196 44.9879L44.9346 19.6205C45.0554 19.0165 44.4515 18.4126 43.8475 18.6542L14.4938 30.0091C13.769 30.2507 13.769 31.3378 14.4938 31.5794ZM24.0368 32.9082L38.0492 24.3316C38.2908 24.2108 38.5324 24.5732 38.2908 24.694L26.8151 35.4449C26.4527 35.8073 26.0903 36.2905 26.0903 36.8945L25.7279 39.7936C25.7279 40.156 25.1239 40.2768 25.0031 39.7936L23.5536 34.4786C23.1912 33.8746 23.4328 33.1498 24.0368 32.9082Z" fill="#A89060"/>
</svg>
