<svg width="62" height="62" viewBox="0 0 62 62" fill="none" xmlns="http://www.w3.org/2000/svg">
<circle cx="31" cy="31" r="31" fill="white"/>
<path d="M46.199 38.9291C46.199 38.8004 46.0703 38.8004 46.0703 38.6717C45.5555 37.6422 44.3974 36.3554 42.8531 34.9398C42.081 34.2964 41.695 33.7817 41.4376 33.5243C41.0515 33.0096 41.0515 32.6235 41.1802 32.1088C41.3089 31.7227 41.8236 31.0793 42.7244 29.9211C43.2392 29.2777 43.4965 28.8916 43.8826 28.5056C45.8129 25.9319 46.7137 24.2589 46.4563 23.4868L46.3277 23.3581C46.199 23.2295 46.0703 23.1008 45.8129 23.1008C45.5555 22.9721 45.1695 22.9721 44.7834 23.1008H39.8934C39.7647 23.1008 39.7647 23.1008 39.5073 23.1008C39.3786 23.1008 39.2499 23.1008 39.2499 23.1008H39.1213H38.9926L38.8639 23.2295C38.7352 23.3581 38.7352 23.3581 38.7352 23.4868C38.2204 24.9024 37.577 26.0605 36.9336 27.3474C36.5475 27.9908 36.1615 28.6343 35.7754 29.149C35.3894 29.6637 35.132 30.0498 34.8746 30.3072C34.6172 30.5645 34.3599 30.6932 34.2312 30.9506C34.1025 31.0793 33.8451 31.208 33.8451 31.0793C33.7165 31.0793 33.5878 31.0793 33.5878 30.9506C33.4591 30.8219 33.3304 30.6932 33.2017 30.5645C33.073 30.4358 33.073 30.1785 32.9443 29.9211C32.9443 29.6637 32.9443 29.4064 32.9443 29.2777C32.9443 29.149 32.9443 28.7629 32.9443 28.5056C32.9443 28.1195 32.9443 27.8621 32.9443 27.7334C32.9443 27.3474 32.9443 26.8327 32.9443 26.3179C32.9443 25.8032 32.9443 25.4171 32.9443 25.1597C32.9443 24.9024 32.9443 24.5163 32.9443 24.2589C32.9443 23.8729 32.9443 23.6155 32.9443 23.4868C32.9443 23.3581 32.8157 23.1008 32.8157 22.9721C32.687 22.8434 32.5583 22.7147 32.4296 22.586C32.3009 22.4573 32.0435 22.4573 31.9149 22.3287C31.2714 22.2 30.4993 22.0713 29.5985 22.0713C27.5396 22.0713 26.124 22.2 25.6093 22.4573C25.3519 22.586 25.0945 22.7147 24.9658 22.9721C24.7085 23.2295 24.7085 23.3581 24.8372 23.3581C25.4806 23.4868 25.9953 23.7442 26.2527 24.1302L26.3814 24.3876C26.5101 24.5163 26.5101 24.7737 26.6387 25.1597C26.7674 25.5458 26.7674 25.9318 26.7674 26.4466C26.7674 27.2187 26.7674 27.9908 26.7674 28.5056C26.7674 29.149 26.6387 29.535 26.6387 29.9211C26.6387 30.3072 26.5101 30.5645 26.3814 30.6932C26.2527 30.9506 26.2527 31.0793 26.124 31.0793C26.124 31.0793 26.124 31.208 25.9953 31.208C25.8666 31.208 25.738 31.3366 25.4806 31.3366C25.3519 31.3366 25.0945 31.208 24.9658 31.0793C24.7085 30.9506 24.4511 30.6932 24.3224 30.4358C24.065 30.1785 23.8077 29.7924 23.5503 29.2777C23.2929 28.7629 22.9069 28.2482 22.6495 27.4761L22.3921 26.9613C22.2635 26.704 22.0061 26.1892 21.7487 25.5458C21.4913 24.9024 21.234 24.3876 20.9766 23.7442C20.8479 23.4868 20.7192 23.3581 20.5905 23.2295H20.4619C20.4619 23.2295 20.3332 23.1008 20.2045 23.1008C20.0758 23.1008 19.9471 22.9721 19.8184 22.9721H15.1857C14.671 22.9721 14.4136 23.1008 14.2849 23.2295L14.1562 23.3581C14.1562 23.3581 14.1562 23.4868 14.1562 23.6155C14.1562 23.7442 14.1563 23.8729 14.2849 24.1302C14.9284 25.6745 15.7005 27.2187 16.4726 28.7629C17.2447 30.1785 18.0168 31.4653 18.5316 32.3661C19.175 33.2669 19.6897 34.1677 20.3332 34.9398C20.9766 35.712 21.3626 36.2267 21.4913 36.4841C21.7487 36.7414 21.8774 36.8701 22.0061 36.9988L22.3921 37.3849C22.6495 37.6422 23.0356 38.0283 23.5503 38.4143C24.065 38.8004 24.7085 39.1865 25.3519 39.5725C25.9953 39.9586 26.7674 40.216 27.5396 40.4733C28.4404 40.7307 29.2125 40.8594 29.9846 40.7307H31.9149C32.3009 40.7307 32.5583 40.602 32.8157 40.3446L32.9443 40.2159C32.9443 40.0873 33.073 40.0873 33.073 39.9586C33.073 39.8299 33.073 39.7012 33.073 39.4438C33.073 38.9291 33.073 38.543 33.2017 38.157C33.3304 37.7709 33.3304 37.5136 33.4591 37.2562C33.5878 36.9988 33.7165 36.8701 33.8451 36.7414C33.9738 36.6127 34.1025 36.4841 34.1025 36.4841H34.2312C34.4886 36.3554 34.8746 36.4841 35.132 36.7414C35.5181 36.9988 35.9041 37.3849 36.1615 37.7709C36.4188 38.157 36.8049 38.543 37.3197 39.0578C37.8344 39.5725 38.2205 39.9586 38.4778 40.0873L38.8639 40.3446C39.1212 40.4733 39.3786 40.602 39.7647 40.7307C40.1507 40.8594 40.4081 40.8594 40.6655 40.8594L45.0408 40.7307C45.4269 40.7307 45.8129 40.602 46.0703 40.4733C46.3276 40.3446 46.4563 40.2159 46.4563 39.9586C46.4563 39.8299 46.4563 39.5725 46.4563 39.4438C46.1989 39.1865 46.199 39.0578 46.199 38.9291Z" fill="#A89060"/>
</svg>
